<svg width="10" height="15" viewBox="0 0 10 15" fill="none" xmlns="http://www.w3.org/2000/svg">
<path fill-rule="evenodd" clip-rule="evenodd" d="M1.8 3.29268C2.03638 3.29268 2.27044 3.2501 2.48883 3.16736C2.70722 3.08463 2.90565 2.96336 3.07279 2.81048C3.23994 2.6576 3.37252 2.47611 3.46298 2.27637C3.55344 2.07663 3.6 1.86254 3.6 1.64634C3.6 1.43014 3.55344 1.21606 3.46298 1.01631C3.37252 0.81657 3.23994 0.635079 3.07279 0.482202C2.90565 0.329325 2.70722 0.208057 2.48883 0.12532C2.27044 0.0425837 2.03638 -4.55609e-09 1.8 0C1.32261 9.20144e-09 0.864773 0.173453 0.527208 0.482202C0.189642 0.790951 0 1.2097 0 1.64634C0 2.08298 0.189642 2.50173 0.527208 2.81048C0.864773 3.11923 1.32261 3.29268 1.8 3.29268ZM8.2 3.29268C8.43638 3.29268 8.67045 3.2501 8.88883 3.16736C9.10722 3.08463 9.30565 2.96336 9.47279 2.81048C9.63994 2.6576 9.77252 2.47611 9.86298 2.27637C9.95344 2.07663 10 1.86254 10 1.64634C10 1.43014 9.95344 1.21606 9.86298 1.01631C9.77252 0.81657 9.63994 0.635079 9.47279 0.482202C9.30565 0.329325 9.10722 0.208057 8.88883 0.12532C8.67045 0.0425837 8.43638 -4.55609e-09 8.2 0C7.72261 9.20144e-09 7.26477 0.173453 6.92721 0.482202C6.58964 0.790951 6.4 1.2097 6.4 1.64634C6.4 2.08298 6.58964 2.50173 6.92721 2.81048C7.26477 3.11923 7.72261 3.29268 8.2 3.29268ZM10 7.5C10 7.93664 9.81036 8.35539 9.47279 8.66414C9.13523 8.97289 8.67739 9.14634 8.2 9.14634C7.72261 9.14634 7.26477 8.97289 6.92721 8.66414C6.58964 8.35539 6.4 7.93664 6.4 7.5C6.4 7.06336 6.58964 6.64461 6.92721 6.33586C7.26477 6.02711 7.72261 5.85366 8.2 5.85366C8.67739 5.85366 9.13523 6.02711 9.47279 6.33586C9.81036 6.64461 10 7.06336 10 7.5ZM1.8 9.14634C2.27739 9.14634 2.73523 8.97289 3.07279 8.66414C3.41036 8.35539 3.6 7.93664 3.6 7.5C3.6 7.06336 3.41036 6.64461 3.07279 6.33586C2.73523 6.02711 2.27739 5.85366 1.8 5.85366C1.32261 5.85366 0.864773 6.02711 0.527208 6.33586C0.189642 6.64461 0 7.06336 0 7.5C0 7.93664 0.189642 8.35539 0.527208 8.66414C0.864773 8.97289 1.32261 9.14634 1.8 9.14634ZM10 13.3537C10 13.7903 9.81036 14.209 9.47279 14.5178C9.13523 14.8265 8.67739 15 8.2 15C7.72261 15 7.26477 14.8265 6.92721 14.5178C6.58964 14.209 6.4 13.7903 6.4 13.3537C6.4 12.917 6.58964 12.4983 6.92721 12.1895C7.26477 11.8808 7.72261 11.7073 8.2 11.7073C8.67739 11.7073 9.13523 11.8808 9.47279 12.1895C9.81036 12.4983 10 12.917 10 13.3537ZM1.8 15C2.27739 15 2.73523 14.8265 3.07279 14.5178C3.41036 14.209 3.6 13.7903 3.6 13.3537C3.6 12.917 3.41036 12.4983 3.07279 12.1895C2.73523 11.8808 2.27739 11.7073 1.8 11.7073C1.32261 11.7073 0.864773 11.8808 0.527208 12.1895C0.189642 12.4983 0 12.917 0 13.3537C0 13.7903 0.189642 14.209 0.527208 14.5178C0.864773 14.8265 1.32261 15 1.8 15Z" fill="#333333"/>
</svg>
