<svg width="20" height="20" viewBox="0 0 20 20" fill="none" xmlns="http://www.w3.org/2000/svg">
<path d="M15.9399 6.35125L9.69242 12.4412L3.44492 6.35125C3.33329 6.24222 3.18345 6.18118 3.02742 6.18118C2.87138 6.18118 2.72154 6.24222 2.60992 6.35125C2.55587 6.4042 2.51293 6.46741 2.48362 6.53717C2.45431 6.60693 2.43921 6.68183 2.43921 6.7575C2.43921 6.83316 2.45431 6.90807 2.48362 6.97783C2.51293 7.04758 2.55587 7.11079 2.60992 7.16375L9.25617 13.6437C9.37288 13.7575 9.52943 13.8212 9.69242 13.8212C9.85541 13.8212 10.012 13.7575 10.1287 13.6437L16.7749 7.165C16.8293 7.112 16.8726 7.04864 16.9021 6.97865C16.9317 6.90866 16.9469 6.83346 16.9469 6.7575C16.9469 6.68153 16.9317 6.60633 16.9021 6.53634C16.8726 6.46635 16.8293 6.40299 16.7749 6.35C16.6633 6.24097 16.5135 6.17993 16.3574 6.17993C16.2014 6.17993 16.0515 6.24097 15.9399 6.35V6.35125Z" fill="#333333"/>
</svg>
