<svg width="20" height="20" viewBox="0 0 20 20" fill="none" xmlns="http://www.w3.org/2000/svg">
<path d="M4.06008 13.6488L10.3076 7.55875L16.5551 13.6488C16.6667 13.7578 16.8165 13.8188 16.9726 13.8188C17.1286 13.8188 17.2785 13.7578 17.3901 13.6488C17.4441 13.5958 17.4871 13.5326 17.5164 13.4628C17.5457 13.3931 17.5608 13.3182 17.5608 13.2425C17.5608 13.1668 17.5457 13.0919 17.5164 13.0222C17.4871 12.9524 17.4441 12.8892 17.3901 12.8363L10.7438 6.35625C10.6271 6.24249 10.4706 6.17881 10.3076 6.17881C10.1446 6.17881 9.98805 6.24249 9.87133 6.35625L3.22508 12.835C3.17065 12.888 3.12739 12.9514 3.09785 13.0213C3.06831 13.0913 3.05309 13.1665 3.05309 13.2425C3.05309 13.3185 3.06831 13.3937 3.09785 13.4637C3.12739 13.5336 3.17065 13.597 3.22508 13.65C3.3367 13.759 3.48655 13.8201 3.64258 13.8201C3.79862 13.8201 3.94846 13.759 4.06008 13.65V13.6488Z" fill="#333333"/>
</svg>
