<svg width="12" height="21" viewBox="0 0 12 21" fill="none" xmlns="http://www.w3.org/2000/svg">
<path d="M0.891698 1.68391L9.4177 10.4304L0.891698 19.1769C0.739059 19.3332 0.653605 19.543 0.653605 19.7614C0.653605 19.9799 0.739059 20.1896 0.891698 20.3459C0.965836 20.4216 1.05433 20.4817 1.15199 20.5227C1.24965 20.5638 1.35452 20.5849 1.46045 20.5849C1.56638 20.5849 1.67125 20.5638 1.76891 20.5227C1.86657 20.4817 1.95506 20.4216 2.0292 20.3459L11.1012 11.0412C11.2605 10.8778 11.3496 10.6586 11.3496 10.4304C11.3496 10.2022 11.2605 9.98306 11.1012 9.81966L2.03095 0.514906C1.95676 0.438704 1.86805 0.378138 1.77006 0.336784C1.67208 0.295429 1.5668 0.274124 1.46045 0.274124C1.35409 0.274124 1.24882 0.295429 1.15083 0.336784C1.05285 0.378138 0.964141 0.438704 0.889948 0.514906C0.737308 0.671177 0.651855 0.880959 0.651855 1.09941C0.651855 1.31785 0.737308 1.52763 0.889948 1.68391H0.891698Z" fill="white"/>
</svg>
