<svg width="7" height="13" viewBox="0 0 7 13" fill="none" xmlns="http://www.w3.org/2000/svg">
<path d="M0.940516 1.72967L5.59106 6.50049L0.940516 11.2713C0.857258 11.3566 0.810647 11.471 0.810647 11.5901C0.810647 11.7093 0.857258 11.8237 0.940516 11.9089C0.980954 11.9502 1.02922 11.983 1.08249 12.0054C1.13576 12.0278 1.19296 12.0393 1.25074 12.0393C1.30852 12.0393 1.36572 12.0278 1.41899 12.0054C1.47226 11.983 1.52053 11.9502 1.56097 11.9089L6.50933 6.83363C6.59621 6.7445 6.64483 6.62496 6.64483 6.50049C6.64483 6.37603 6.59621 6.25649 6.50933 6.16736L1.56192 1.09204C1.52146 1.05047 1.47307 1.01744 1.41962 0.99488C1.36618 0.972322 1.30875 0.960702 1.25074 0.960702C1.19273 0.960702 1.13531 0.972322 1.08186 0.99488C1.02842 1.01744 0.98003 1.05047 0.939561 1.09204C0.856303 1.17728 0.809692 1.2917 0.809692 1.41086C0.809692 1.53001 0.856303 1.64443 0.939561 1.72967H0.940516Z" fill="#606060"/>
</svg>
