<svg width="7" height="12" viewBox="0 0 7 12" fill="none" xmlns="http://www.w3.org/2000/svg">
<path d="M6.28678 11.1794L1.63623 6.40857L6.28678 1.63775C6.37004 1.55251 6.41665 1.43808 6.41665 1.31893C6.41665 1.19977 6.37004 1.08535 6.28678 1.00011C6.24634 0.958837 6.19807 0.926049 6.1448 0.903665C6.09153 0.881281 6.03433 0.869751 5.97655 0.869751C5.91877 0.869751 5.86157 0.881281 5.8083 0.903665C5.75503 0.926049 5.70676 0.958837 5.66633 1.00011L0.717961 6.07543C0.631084 6.16456 0.582462 6.2841 0.582462 6.40857C0.582462 6.53303 0.631084 6.65257 0.717961 6.7417L5.66537 11.817C5.70584 11.8586 5.75423 11.8916 5.80767 11.9142C5.86112 11.9367 5.91854 11.9484 5.97655 11.9484C6.03456 11.9484 6.09199 11.9367 6.14543 11.9142C6.19888 11.8916 6.24727 11.8586 6.28773 11.817C6.37099 11.7318 6.4176 11.6174 6.4176 11.4982C6.4176 11.379 6.37099 11.2646 6.28773 11.1794H6.28678Z" fill="#606060"/>
</svg>
