<svg width="29" height="29" viewBox="0 0 29 29" fill="none" xmlns="http://www.w3.org/2000/svg">
<path d="M10.1295 5.06932H9.90907C10.0303 5.06932 10.1295 4.97014 10.1295 4.84891V5.06932H18.5048V4.84891C18.5048 4.97014 18.604 5.06932 18.7252 5.06932H18.5048V7.05294H20.4884V4.84891C20.4884 3.87639 19.6977 3.08569 18.7252 3.08569H9.90907C8.93654 3.08569 8.14585 3.87639 8.14585 4.84891V7.05294H10.1295V5.06932ZM24.0148 7.05294H4.6194C4.13176 7.05294 3.73779 7.44691 3.73779 7.93455V8.81616C3.73779 8.93738 3.83697 9.03656 3.9582 9.03656H5.62224L6.30273 23.4454C6.34681 24.3849 7.12373 25.126 8.06319 25.126H20.571C21.5133 25.126 22.2874 24.3876 22.3315 23.4454L23.012 9.03656H24.676C24.7973 9.03656 24.8964 8.93738 24.8964 8.81616V7.93455C24.8964 7.44691 24.5025 7.05294 24.0148 7.05294ZM20.3589 23.1423H8.27533L7.60861 9.03656H21.0256L20.3589 23.1423Z" fill="white"/>
</svg>
