<svg width="29" height="29" viewBox="0 0 29 29" fill="none" xmlns="http://www.w3.org/2000/svg">
<g clip-path="url(#clip0_104_1013)">
<path d="M21.9422 23.5096H4.70183V6.26921H15.0617L16.629 4.7019H4.70183C4.28615 4.7019 3.8875 4.86703 3.59358 5.16096C3.29965 5.45489 3.13452 5.85354 3.13452 6.26921V23.5096C3.13452 23.9253 3.29965 24.3239 3.59358 24.6179C3.8875 24.9118 4.28615 25.0769 4.70183 25.0769H21.9422C22.3579 25.0769 22.7565 24.9118 23.0505 24.6179C23.3444 24.3239 23.5095 23.9253 23.5095 23.5096V11.7548L21.9422 13.3221V23.5096Z" fill="#5553E2"/>
<path d="M26.2758 4.57662L23.6349 1.9357C23.5177 1.81818 23.3784 1.72493 23.2251 1.66131C23.0718 1.59769 22.9075 1.56494 22.7415 1.56494C22.5755 1.56494 22.4112 1.59769 22.2579 1.66131C22.1046 1.72493 21.9654 1.81818 21.8482 1.9357L11.1043 12.7423L10.2344 16.5117C10.1973 16.6944 10.2012 16.883 10.2458 17.0641C10.2904 17.2451 10.3745 17.414 10.4922 17.5586C10.6098 17.7033 10.7581 17.82 10.9262 17.9005C11.0944 17.981 11.2783 18.0232 11.4647 18.0241C11.5611 18.0347 11.6583 18.0347 11.7547 18.0241L15.5554 17.1856L26.2758 6.36335C26.3933 6.24614 26.4866 6.1069 26.5502 5.9536C26.6138 5.8003 26.6466 5.63596 26.6466 5.46998C26.6466 5.304 26.6138 5.13966 26.5502 4.98636C26.4866 4.83306 26.3933 4.69382 26.2758 4.57662V4.57662ZM14.7404 15.7358L11.8722 16.3706L12.5383 13.5259L20.6257 5.38378L22.8356 7.59368L14.7404 15.7358ZM23.7211 6.70815L21.5112 4.49825L22.7258 3.26008L24.9514 5.48565L23.7211 6.70815Z" fill="#5553E2"/>
</g>
<defs>
<clipPath id="clip0_104_1013">
<rect width="28.2115" height="28.2115" fill="white"/>
</clipPath>
</defs>
</svg>
