<svg width="20" height="19" viewBox="0 0 20 19" fill="currentColor" xmlns="http://www.w3.org/2000/svg">
<path d="M5.0139 1.8001C4.4367 1.8001 3.9999 2.2489 3.9999 2.7649V4.2001H2.7999V2.7649C2.7999 1.5529 3.8079 0.600098 5.0139 0.600098H17.3859C18.5919 0.600098 19.5999 1.5529 19.5999 2.7649V11.6353C19.5999 12.8473 18.5919 13.8001 17.3859 13.8001H9.9999V12.6001H17.3859C17.9631 12.6001 18.3999 12.1513 18.3999 11.6353V2.7649C18.3999 2.2489 17.9631 1.8001 17.3859 1.8001H5.0139ZM9.9999 11.4001H12.9999C13.159 11.4001 13.3116 11.3369 13.4242 11.2244C13.5367 11.1118 13.5999 10.9592 13.5999 10.8001C13.5999 10.641 13.5367 10.4884 13.4242 10.3758C13.3116 10.2633 13.159 10.2001 12.9999 10.2001H9.9999V11.4001ZM3.9999 15.0001C3.84077 15.0001 3.68816 15.0633 3.57564 15.1758C3.46312 15.2884 3.3999 15.441 3.3999 15.6001C3.3999 15.7592 3.46312 15.9118 3.57564 16.0244C3.68816 16.1369 3.84077 16.2001 3.9999 16.2001H5.1999C5.35903 16.2001 5.51164 16.1369 5.62417 16.0244C5.73669 15.9118 5.7999 15.7592 5.7999 15.6001C5.7999 15.441 5.73669 15.2884 5.62417 15.1758C5.51164 15.0633 5.35903 15.0001 5.1999 15.0001H3.9999ZM0.399902 7.2001C0.399902 6.72271 0.589545 6.26487 0.92711 5.92731C1.26468 5.58974 1.72251 5.4001 2.1999 5.4001H6.9999C7.47729 5.4001 7.93513 5.58974 8.2727 5.92731C8.61026 6.26487 8.7999 6.72271 8.7999 7.2001V16.8001C8.7999 17.2775 8.61026 17.7353 8.2727 18.0729C7.93513 18.4105 7.47729 18.6001 6.9999 18.6001H2.1999C1.72251 18.6001 1.26468 18.4105 0.92711 18.0729C0.589545 17.7353 0.399902 17.2775 0.399902 16.8001V7.2001ZM2.1999 6.6001C2.04077 6.6001 1.88816 6.66331 1.77564 6.77583C1.66312 6.88836 1.5999 7.04097 1.5999 7.2001V16.8001C1.5999 16.9592 1.66312 17.1118 1.77564 17.2244C1.88816 17.3369 2.04077 17.4001 2.1999 17.4001H6.9999C7.15903 17.4001 7.31164 17.3369 7.42417 17.2244C7.53669 17.1118 7.5999 16.9592 7.5999 16.8001V7.2001C7.5999 7.04097 7.53669 6.88836 7.42417 6.77583C7.31164 6.66331 7.15903 6.6001 6.9999 6.6001H2.1999Z" fill="#ECF5FE"/>
</svg>
