<svg width="22" height="22" viewBox="0 0 22 22" fill="none" xmlns="http://www.w3.org/2000/svg">
<path d="M6.44513 3.83481C6.44513 4.31541 6.83473 4.70502 7.31534 4.70502C7.79594 4.70502 8.18555 4.31541 8.18555 3.83481C8.18555 3.35421 7.79594 2.9646 7.31534 2.9646C6.83473 2.9646 6.44513 3.35421 6.44513 3.83481Z" stroke="#B1B1B1" stroke-width="1.74042"/>
<path d="M13.407 3.83481C13.407 4.31541 13.7966 4.70502 14.2773 4.70502C14.7579 4.70502 15.1475 4.31541 15.1475 3.83481C15.1475 3.35421 14.7579 2.9646 14.2773 2.9646C13.7966 2.9646 13.407 3.35421 13.407 3.83481Z" stroke="#B1B1B1" stroke-width="1.74042"/>
<path d="M6.44513 10.7965C6.44513 11.2771 6.83473 11.6667 7.31534 11.6667C7.79594 11.6667 8.18555 11.2771 8.18555 10.7965C8.18555 10.3159 7.79594 9.92627 7.31534 9.92627C6.83473 9.92627 6.44513 10.3159 6.44513 10.7965Z" stroke="#B1B1B1" stroke-width="1.74042"/>
<path d="M13.407 10.7965C13.407 11.2771 13.7966 11.6667 14.2773 11.6667C14.7579 11.6667 15.1475 11.2771 15.1475 10.7965C15.1475 10.3159 14.7579 9.92627 14.2773 9.92627C13.7966 9.92627 13.407 10.3159 13.407 10.7965Z" stroke="#B1B1B1" stroke-width="1.74042"/>
<path d="M6.44513 17.7581C6.44513 18.2388 6.83473 18.6284 7.31534 18.6284C7.79594 18.6284 8.18555 18.2388 8.18555 17.7581C8.18555 17.2775 7.79594 16.8879 7.31534 16.8879C6.83473 16.8879 6.44513 17.2775 6.44513 17.7581Z" stroke="#B1B1B1" stroke-width="1.74042"/>
<path d="M13.407 17.7581C13.407 18.2388 13.7966 18.6284 14.2773 18.6284C14.7579 18.6284 15.1475 18.2388 15.1475 17.7581C15.1475 17.2775 14.7579 16.8879 14.2773 16.8879C13.7966 16.8879 13.407 17.2775 13.407 17.7581Z" stroke="#B1B1B1" stroke-width="1.74042"/>
</svg>
