<svg width="29" height="28" viewBox="0 0 29 28" fill="none" xmlns="http://www.w3.org/2000/svg">
<path fill-rule="evenodd" clip-rule="evenodd" d="M4.37068 3.40341C4.60833 3.16605 4.93047 3.03273 5.26636 3.03273C5.60224 3.03273 5.92438 3.16605 6.16204 3.40341L14.9836 12.225L23.8052 3.40341C23.9213 3.27888 24.0612 3.179 24.2167 3.10972C24.3721 3.04045 24.54 3.0032 24.7102 3.0002C24.8804 2.99719 25.0494 3.0285 25.2072 3.09225C25.365 3.15599 25.5084 3.25088 25.6288 3.37123C25.7491 3.49159 25.844 3.63496 25.9078 3.79278C25.9715 3.9506 26.0028 4.11965 25.9998 4.28983C25.9968 4.46001 25.9596 4.62785 25.8903 4.78333C25.821 4.9388 25.7211 5.07873 25.5966 5.19477L16.775 14.0164L25.5966 22.838C25.7211 22.954 25.821 23.0939 25.8903 23.2494C25.9596 23.4049 25.9968 23.5727 25.9998 23.7429C26.0028 23.9131 25.9715 24.0821 25.9078 24.24C25.844 24.3978 25.7491 24.5411 25.6288 24.6615C25.5084 24.7819 25.365 24.8767 25.2072 24.9405C25.0494 25.0042 24.8804 25.0355 24.7102 25.0325C24.54 25.0295 24.3721 24.9923 24.2167 24.923C24.0612 24.8537 23.9213 24.7539 23.8052 24.6293L14.9836 15.8077L6.16204 24.6293C5.92177 24.8532 5.60397 24.9751 5.27561 24.9693C4.94725 24.9635 4.63396 24.8305 4.40173 24.5983C4.16951 24.366 4.03649 24.0528 4.0307 23.7244C4.0249 23.396 4.14679 23.0782 4.37068 22.838L13.1923 14.0164L4.37068 5.19477C4.13332 4.95712 4 4.63497 4 4.29909C4 3.96321 4.13332 3.64106 4.37068 3.40341Z" fill="white"/>
</svg>
