<svg width="574" height="571" viewBox="0 0 574 571" fill="none" xmlns="http://www.w3.org/2000/svg">
<path d="M551.229 448.599L551.229 448.605C550.883 453.502 549.398 456.502 547.4 458.35C545.387 460.212 542.705 461.042 539.694 461.282C536.678 461.522 533.445 461.163 530.428 460.746C529.933 460.677 529.44 460.607 528.953 460.537C526.552 460.192 524.288 459.866 522.611 459.939L522.602 459.94L522.594 459.94C517.114 460.262 512.338 458.046 507.33 455.723C507.202 455.663 507.073 455.604 506.945 455.544C501.886 453.199 496.55 450.801 490.447 451.73L490.437 451.732L490.426 451.734C485.779 452.532 481.02 450.423 477.421 446.09C476.745 445.007 476.038 443.838 475.759 442.41C475.413 440.341 476.026 438.176 477.148 436.357C478.274 434.533 479.805 433.229 481.081 432.767C482.418 432.39 483.795 432.445 485.356 432.582C485.553 432.599 485.754 432.618 485.958 432.637C487.331 432.765 488.858 432.907 490.402 432.716L490.41 432.715C493.066 432.365 495.626 430.962 498.042 429.239C499.944 427.883 501.845 426.26 503.692 424.685C504.192 424.258 504.689 423.834 505.181 423.42C507.522 421.447 509.753 419.689 511.916 418.597C514.067 417.511 516.001 417.161 517.821 417.78L517.834 417.784L517.848 417.788C519.083 418.175 520.209 418.986 521.304 420.134C522.403 421.287 523.419 422.721 524.451 424.281C524.735 424.711 525.022 425.152 525.312 425.598C526.055 426.742 526.818 427.916 527.605 428.995C528.704 430.504 529.922 431.933 531.346 432.981L531.347 432.982C533.44 434.516 535.75 435.103 537.949 435.5C538.533 435.605 539.101 435.697 539.658 435.787C541.267 436.046 542.777 436.29 544.265 436.803L544.293 436.813L544.321 436.821C548.025 437.892 551.73 442.021 551.229 448.599Z" stroke="#5553E2" stroke-opacity="0.05" stroke-width="2.29547" stroke-miterlimit="10"/>
<path d="M495.254 414.761L495.254 414.761L495.263 414.753C496.445 413.608 497.654 412.369 498.897 411.094C501.013 408.924 503.227 406.654 505.57 404.583C509.273 401.309 513.011 398.812 516.639 398.276C519.942 397.813 522.733 399.049 525.517 401.257C527.791 403.103 529.749 405.723 531.707 408.785C532.599 410.18 533.477 411.645 534.383 413.154C534.469 413.297 534.555 413.441 534.642 413.586C535.633 415.238 536.658 416.935 537.748 418.607C539.644 421.642 541.703 424.35 544.242 426.207C547.049 428.482 550.174 429.632 553.388 430.447C554.851 430.817 556.354 431.124 557.857 431.43C558.006 431.46 558.154 431.49 558.303 431.521C559.964 431.86 561.63 432.209 563.311 432.661L563.311 432.661L563.322 432.664C572.465 435.027 577.886 444.726 576.767 456.712C576.391 460.741 575.638 464.437 574.513 467.803C572.717 472.785 570.156 477.995 566.918 482.041C563.668 486.102 559.848 488.856 555.552 489.226C554.749 489.294 553.822 489.047 552.739 488.516C551.659 487.987 550.531 487.23 549.341 486.396C549.142 486.256 548.94 486.114 548.737 485.97C547.757 485.278 546.739 484.559 545.747 483.968C544.555 483.256 543.274 482.647 541.984 482.487L541.975 482.486L541.966 482.485C539.341 482.203 536.823 482 534.409 481.805C529.972 481.446 525.882 481.116 522.11 480.38L522.098 480.377L522.087 480.375C516.877 479.472 511.671 479.481 506.638 479.49C506.061 479.491 505.486 479.492 504.914 479.491C499.307 479.488 493.926 479.353 488.734 477.907C486.458 477.269 484.333 475.519 481.983 473.483C481.856 473.373 481.728 473.262 481.6 473.15C479.47 471.301 477.14 469.277 474.555 468.292C473.591 467.801 472.764 467.613 471.687 467.636L471.667 467.636L471.648 467.637C464.135 468.059 457.47 463.908 452.764 456.943L452.755 456.928L452.745 456.914C451.436 455.092 450.408 452.906 449.947 449.951L449.909 449.711L449.837 449.595L449.83 449.524C449.423 445.281 450.7 440.756 452.776 436.996C454.867 433.207 457.648 430.407 460.04 429.428L460.059 429.42L460.078 429.412C462.21 428.443 464.338 428.343 466.605 428.45C467.15 428.475 467.714 428.514 468.291 428.554C470.039 428.676 471.909 428.806 473.742 428.592C475.162 428.448 476.422 428.245 477.745 427.796C481.082 426.723 484.145 424.693 487.01 422.343C489.263 420.495 491.447 418.403 493.561 416.377C494.13 415.832 494.695 415.291 495.254 414.761Z" stroke="#5553E2" stroke-opacity="0.05" stroke-width="2.29547" stroke-miterlimit="10"/>
<path d="M520.31 378.386L520.319 378.386L520.328 378.385C525.548 378.121 529.583 380.942 533.235 384.768C536.112 387.809 538.531 391.67 540.91 395.922C541.753 397.43 542.597 398.997 543.454 400.589C544.981 403.427 546.551 406.343 548.237 409.14C550.65 413.307 553.477 416.618 556.449 419.245L556.46 419.255L556.472 419.265C560.141 422.341 564.254 423.964 568.55 425.123C570.694 425.701 572.904 426.168 575.13 426.636L575.253 426.662C577.447 427.124 579.661 427.59 581.901 428.173C597.018 432.17 603.866 447.293 602.139 464.555C601.349 470.659 600.353 476.612 598.404 481.848L598.402 481.854L598.399 481.861C595.786 489.157 592.18 497.775 587.507 504.719C582.81 511.699 577.206 516.737 570.672 517.372C569.584 517.452 568.248 516.918 566.626 515.788C565.026 514.674 563.342 513.12 561.588 511.461C561.403 511.286 561.217 511.11 561.031 510.933C559.479 509.462 557.882 507.947 556.331 506.731C554.618 505.389 552.782 504.261 550.953 504.045L550.953 504.045L550.94 504.044C547.377 503.666 543.881 503.433 540.493 503.207C538.699 503.087 536.936 502.97 535.209 502.834C530.184 502.438 525.393 501.883 520.758 500.68C512.966 498.608 504.911 499.8 497.126 501.053C496.841 501.099 496.555 501.145 496.27 501.191C488.697 502.413 481.391 503.591 474.392 502.165L474.386 502.163C473.121 501.913 471.834 501.095 470.48 499.794C469.131 498.497 467.811 496.815 466.461 494.985C466.062 494.444 465.659 493.887 465.253 493.326C464.308 492.022 463.346 490.695 462.383 489.486C461.006 487.757 459.537 486.153 457.946 485.068C456.855 484.299 455.6 483.693 454.166 483.653L454.122 483.652L454.078 483.654C443.18 484.206 434.057 477.658 427.833 467.979C426.023 465.08 424.529 461.839 423.949 457.237L423.846 456.415L423.797 456.403C423.338 450.23 425.18 443.591 428.098 438.043C431.094 432.348 435.1 428.033 438.618 426.512L438.632 426.506L438.646 426.5C441.911 424.982 445.07 424.833 448.386 424.952C449.069 424.977 449.765 425.014 450.472 425.051C453.145 425.193 455.98 425.343 458.875 424.869L458.889 424.867L458.902 424.864C460.595 424.543 462.593 424.039 464.436 423.236C469.185 421.21 473.565 417.92 477.63 414.247C480.905 411.287 484.02 408.035 486.973 404.953C487.682 404.213 488.381 403.483 489.072 402.769L489.078 402.762C490.529 401.237 492.05 399.542 493.637 397.772C496.716 394.338 500.048 390.623 503.622 387.321C509.038 382.316 514.691 378.585 520.31 378.386Z" stroke="#5553E2" stroke-opacity="0.05" stroke-width="2.29547" stroke-miterlimit="10"/>
<path d="M482.957 390.353L482.957 390.353C484.835 388.37 486.826 386.122 488.924 383.754C492.904 379.261 497.268 374.334 501.967 369.966C509.141 363.296 516.739 358.294 524.321 358.312C531.027 358.375 536.534 362.889 541.02 368.326C544.474 372.56 547.338 377.648 550.146 383.031C550.821 384.325 551.493 385.638 552.169 386.959C554.286 391.091 556.442 395.3 558.837 399.253C561.879 404.724 565.217 408.869 568.986 412.163L568.988 412.165C576.605 418.786 585.916 420.688 595.957 422.739C597.467 423.047 598.995 423.359 600.535 423.691L600.537 423.692C611.124 425.954 618.368 432.43 622.709 441.138C627.07 449.883 628.509 460.909 627.338 472.158L627.338 472.158L627.337 472.17C626.577 480.323 624.96 488.255 622.374 495.479C618.974 504.955 614.334 516.962 608.242 526.797C602.113 536.693 594.717 544.058 585.926 544.848L585.923 544.848C584.423 544.986 582.603 544.155 580.435 542.447C578.305 540.768 576.069 538.434 573.769 535.973C573.53 535.718 573.291 535.461 573.052 535.204C571.008 533.013 568.924 530.778 566.906 528.995C564.689 527.035 562.339 525.42 560.017 525.154L560.017 525.154L560.009 525.153C555.059 524.622 550.233 524.364 545.552 524.113C543.288 523.992 541.058 523.872 538.864 523.725C532.099 523.269 525.603 522.544 519.193 520.694C509.347 517.776 498.994 520.001 488.956 522.444C488.262 522.613 487.569 522.783 486.878 522.953C477.455 525.265 468.338 527.502 459.705 526.109C458.188 525.842 456.665 524.745 455.078 522.898C453.501 521.063 451.99 518.642 450.465 515.996C449.929 515.066 449.388 514.102 448.844 513.132C447.866 511.39 446.877 509.628 445.886 508.007C444.338 505.476 442.691 503.126 440.877 501.5L440.837 501.463L440.793 501.431L440.756 501.403C440.093 500.91 439.344 500.353 438.574 499.944C437.791 499.528 436.873 499.201 435.876 499.294C421.798 500.013 410.401 491.322 402.501 478.666C400.189 474.962 398.079 470.451 397.577 464.322C397.586 464.177 397.573 464.052 397.56 463.96C397.542 463.839 397.513 463.725 397.499 463.669C397.499 463.669 397.499 463.669 397.499 463.669L397.49 463.519C396.998 455.134 399.543 446.082 403.449 438.524C407.373 430.933 412.554 425.069 417.14 422.865L417.149 422.861C421.56 420.69 425.792 420.503 430.175 420.668C431.009 420.7 431.854 420.745 432.709 420.791C436.294 420.982 440.055 421.183 443.907 420.427L443.936 420.421L443.966 420.413L444.015 420.401C446.366 419.804 448.841 419.176 451.2 418.029C457.46 415.295 463.109 410.775 468.318 405.769C471.861 402.363 475.251 398.68 478.498 395.152C480.015 393.504 481.501 391.889 482.957 390.353Z" stroke="#5553E2" stroke-opacity="0.05" stroke-width="2.29547" stroke-miterlimit="10"/>
<path d="M528.078 338.408L528.082 338.408C536.762 338.69 543.519 344.867 548.825 351.903C552.845 357.327 556.15 363.637 559.422 370.245C560.004 371.421 560.586 372.608 561.17 373.8C563.852 379.271 566.591 384.86 569.735 390.143C573.452 396.695 577.302 401.669 581.86 405.625L581.861 405.627C591.429 413.899 603.203 416.255 616.415 418.9C617.441 419.105 618.474 419.312 619.517 419.523L619.518 419.524C633.063 422.253 642.162 430.447 647.539 441.438C652.937 452.471 654.593 466.353 653.095 480.336C651.923 490.535 650.111 500.517 646.693 509.626L646.69 509.633L646.685 509.647C642.367 521.387 636.689 536.828 629.204 549.585C621.674 562.419 612.544 572.139 601.485 573.091C599.559 573.242 597.248 572.053 594.545 569.735C591.887 567.457 589.104 564.316 586.26 561.039C585.998 560.738 585.736 560.435 585.474 560.132C582.91 557.173 580.31 554.171 577.797 551.79C575.072 549.208 572.219 547.124 569.424 546.809C563.155 546.071 557.014 545.793 551.014 545.522C548.394 545.404 545.801 545.287 543.236 545.133C534.758 544.625 526.5 543.716 518.228 541.082C506.366 537.209 493.781 540.475 481.515 544.142C480.467 544.456 479.421 544.772 478.378 545.087C467.063 548.509 456.052 551.839 445.62 550.43L445.616 550.429C443.825 550.193 442.041 548.822 440.194 546.403C438.369 544.011 436.646 540.81 434.924 537.313C434.284 536.012 433.64 534.663 432.994 533.309C431.928 531.074 430.855 528.824 429.774 526.747C428.036 523.405 426.188 520.323 424.134 518.218L424.11 518.193L424.085 518.17C422.371 516.602 420.68 515.254 418.358 515.304L418.342 515.305L418.327 515.305C400.816 516.167 386.915 505.257 377.561 489.687L377.556 489.678L377.55 489.67C374.732 485.155 372.154 479.605 371.532 471.825C371.575 471.487 371.54 471.212 371.508 471.026C371.503 470.997 371.497 470.965 371.493 470.939L371.497 470.919L371.488 470.768C370.886 460.128 374.019 448.754 378.822 439.302C383.642 429.815 390.03 422.486 395.745 419.732L395.753 419.728C401.292 417.007 406.593 416.836 412.053 417.048C412.921 417.081 413.797 417.125 414.681 417.17C419.296 417.402 424.107 417.644 429.059 416.479C432.205 415.788 435.206 414.811 438.092 413.315C445.651 409.718 452.563 403.979 458.943 397.67C463.484 393.18 467.8 388.352 471.897 383.769C473.551 381.919 475.17 380.11 476.752 378.378C478.946 376.006 481.301 373.28 483.803 370.385C488.705 364.711 494.168 358.388 500.073 352.812C508.998 344.384 518.554 338.059 528.078 338.408Z" stroke="#5553E2" stroke-opacity="0.05" stroke-width="2.29547" stroke-miterlimit="10"/>
<path d="M470.804 366.238L470.808 366.234C473.236 363.536 475.852 360.441 478.636 357.146C484.518 350.185 491.152 342.336 498.359 335.468C508.987 325.341 520.499 317.731 532.111 318.33C542.303 318.954 550.357 326.592 556.645 335.491C561.228 342.106 564.984 349.581 568.672 357.339C569.362 358.79 570.05 360.251 570.74 361.717C573.729 368.068 576.768 374.525 580.239 380.69C584.43 388.304 589.011 394.149 594.118 398.699L594.128 398.708C605.95 409.016 620.406 411.823 637.187 415.082C637.479 415.139 637.772 415.196 638.065 415.253L638.066 415.253C654.572 418.448 665.472 428.348 671.838 441.585C678.227 454.867 680.055 471.54 678.25 488.149C676.887 500.402 674.666 512.4 670.619 523.476L670.616 523.483C670.49 523.835 670.363 524.189 670.235 524.547C665.289 538.358 658.758 556.595 650.115 571.828C645.683 579.638 640.724 586.607 635.182 591.769C629.647 596.925 623.582 600.232 616.916 600.842C614.554 601.002 611.75 599.443 608.518 596.52C605.335 593.641 602.004 589.693 598.617 585.6C598.329 585.252 598.042 584.904 597.754 584.556C594.673 580.828 591.558 577.059 588.553 574.081C586.905 572.45 585.26 571.023 583.637 569.958C582.019 568.896 580.361 568.152 578.702 567.968L578.697 567.968C571.449 567.199 564.362 566.94 557.438 566.687C553.943 566.559 550.491 566.432 547.08 566.243C536.862 565.675 526.899 564.54 516.863 561.144L516.856 561.142C503.062 556.574 488.32 560.883 473.857 565.755C472.521 566.205 471.187 566.66 469.855 567.114C463.921 569.138 458.031 571.148 452.191 572.629C445.048 574.441 438.07 575.437 431.326 574.705L431.317 574.704C429.232 574.494 427.176 572.847 425.075 569.874C423.001 566.94 421.069 562.978 419.162 558.649C418.368 556.846 417.571 554.962 416.773 553.075C415.685 550.502 414.595 547.923 413.506 545.538C411.612 541.39 409.617 537.579 407.405 534.961C405.49 532.528 403.38 531.11 400.859 531.096L400.827 531.096L400.796 531.097C380.084 532.138 363.514 518.744 352.659 500.474C349.357 494.894 346.306 488.284 345.574 478.824C345.583 478.7 345.578 478.593 345.574 478.526C345.567 478.407 345.553 478.284 345.544 478.202C345.534 478.115 345.529 478.06 345.526 478.018L345.541 477.944L345.532 477.793C344.797 465.016 348.57 451.335 354.302 439.965C360.054 428.558 367.662 419.701 374.406 416.371C381.209 413.012 387.648 412.817 394.2 413.081C395.228 413.123 396.262 413.176 397.303 413.23C402.842 413.516 408.562 413.812 414.45 412.365C418.109 411.544 421.623 410.216 424.943 408.621L424.946 408.619C434.042 404.208 442.242 397.183 449.782 389.504C454.679 384.516 459.35 379.195 463.812 374.112C466.202 371.39 468.531 368.736 470.804 366.238Z" stroke="#5553E2" stroke-opacity="0.05" stroke-width="2.29547" stroke-miterlimit="10"/>
<path d="M352.894 412.74L352.887 412.744C345.014 416.624 336.187 427.004 329.506 440.331C322.843 453.619 318.43 469.61 319.191 484.504L319.199 484.651L319.169 484.794L319.169 484.795C319.164 484.822 319.16 484.839 319.18 485.017C319.197 485.171 319.231 485.442 319.189 485.778C320.04 496.887 323.555 504.539 327.33 511.169C339.854 532.405 358.702 547.955 382.608 546.739C385.527 546.541 388.016 548.666 390.022 551.278C392.464 554.418 394.661 558.967 396.75 563.934C397.956 566.801 399.157 569.886 400.355 572.965C401.226 575.202 402.095 577.436 402.965 579.582C405.057 584.745 407.184 589.484 409.475 593.003C411.799 596.572 414.088 598.566 416.411 598.834C424.162 599.571 432.211 598.221 440.459 595.897C447.068 594.035 453.74 591.568 460.457 589.085C462.136 588.465 463.818 587.843 465.502 587.23C482.223 581.139 499.231 575.814 515.017 581.328L515.02 581.329C526.819 585.488 538.552 586.807 550.515 587.434C554.335 587.635 558.19 587.764 562.08 587.895C570.32 588.172 578.715 588.454 587.249 589.425M352.894 412.74L587.155 590.573M352.894 412.74C360.72 408.807 368.187 408.561 375.816 408.845C376.999 408.889 378.19 408.946 379.389 409.004C385.859 409.315 392.541 409.636 399.45 407.93C403.59 406.986 407.847 405.363 411.7 403.418C422.206 398.171 431.714 389.996 440.449 381.047C446.651 374.693 452.507 367.9 458.061 361.457C460.32 358.836 462.529 356.274 464.691 353.822C467.399 350.781 470.332 347.277 473.464 343.533C480.291 335.375 488.067 326.083 496.533 317.986C508.899 306.158 522.368 297.265 535.94 298.203C548.107 299.054 557.363 308.58 564.477 319.095C569.637 326.778 573.773 335.451 577.816 344.406C578.506 345.933 579.193 347.469 579.882 349.01C583.219 356.471 586.601 364.033 590.533 371.196M352.894 412.74L591.528 370.66M587.249 589.425C587.25 589.425 587.25 589.425 587.251 589.425L587.155 590.573M587.249 589.425C587.248 589.425 587.248 589.424 587.247 589.424L587.155 590.573M587.249 589.425C589.14 589.633 591.036 590.509 592.895 591.771C594.761 593.038 596.658 594.74 598.561 596.693C601.996 600.219 605.559 604.676 609.094 609.1C609.47 609.569 609.845 610.038 610.219 610.506C614.15 615.414 618.027 620.154 621.74 623.59C625.511 627.079 628.819 628.939 631.635 628.668L631.644 628.668L631.644 628.668C639.455 627.979 646.546 624.029 653.002 617.873C659.46 611.714 665.226 603.4 670.369 594.117C679.97 576.792 687.301 556.284 692.928 540.544C693.333 539.412 693.729 538.304 694.116 537.224M587.155 590.573C593.385 591.258 600.758 600.481 608.22 609.817C616.43 620.087 624.748 630.494 631.774 629.818C663.229 627.046 682.347 573.566 693.997 540.977C694.403 539.84 694.801 538.728 695.189 537.645C699.905 524.491 702.594 510.16 704.326 496.072M694.116 537.224C694.116 537.224 694.116 537.224 694.116 537.224L695.189 537.645L694.116 537.224ZM694.116 537.224C698.791 524.184 701.466 509.949 703.193 495.906M703.193 495.906C703.193 495.908 703.192 495.911 703.192 495.913L704.326 496.072M703.193 495.906C703.193 495.903 703.194 495.901 703.194 495.898L704.326 496.072M703.193 495.906C705.303 476.676 703.302 457.214 695.93 441.655C688.581 426.144 675.886 414.48 656.439 410.709M704.326 496.072C708.579 457.326 696.321 417.27 656.621 409.575M656.621 409.575L656.443 410.71C656.441 410.71 656.44 410.71 656.439 410.709M656.621 409.575C636.748 405.838 620.383 402.693 607.131 390.927M656.621 409.575L656.436 410.709C656.437 410.709 656.438 410.709 656.439 410.709M656.439 410.709C636.632 406.986 619.929 403.805 606.393 391.787M607.131 390.927L606.395 391.789C606.394 391.788 606.394 391.787 606.393 391.787M607.131 390.927C601.366 385.831 596.135 379.224 591.528 370.66M607.131 390.927L606.393 391.787M606.393 391.787C600.511 386.587 595.197 379.866 590.533 371.196M591.528 370.66L590.535 371.2C590.534 371.198 590.533 371.197 590.533 371.196M591.528 370.66L590.53 371.191C590.531 371.192 590.532 371.194 590.533 371.196" stroke="#5553E2" stroke-opacity="0.05" stroke-width="2.29547" stroke-miterlimit="10"/>
<path d="M539.933 278.348L539.946 278.349C553.661 279.331 564.377 290.586 572.305 302.699C578.023 311.568 582.595 321.457 587.105 331.607C587.65 332.833 588.194 334.063 588.74 335.295C592.695 344.239 596.706 353.305 601.479 361.869C606.82 371.62 612.644 379.166 619.308 385.022C634.348 398.564 653.002 402.203 675.403 406.537L675.413 406.539C697.846 410.663 712.398 424.048 720.784 441.848C729.194 459.699 731.408 482.021 728.991 503.873L728.991 503.877C727.244 520.243 724.162 536.483 718.647 551.427L718.646 551.43C717.845 553.622 717.015 555.919 716.153 558.302C709.848 575.748 701.88 597.796 691.612 616.66C685.78 627.375 679.235 637.004 671.878 644.154C664.525 651.301 656.42 655.915 647.451 656.738L647.446 656.739C645.898 656.888 644.188 656.431 642.297 655.388C640.405 654.344 638.402 652.75 636.305 650.738C632.105 646.709 627.695 641.163 623.22 635.439C622.866 634.986 622.511 634.531 622.156 634.076C618.055 628.824 613.918 623.524 609.933 619.352C607.765 617.081 605.609 615.11 603.495 613.647C601.388 612.189 599.251 611.187 597.131 610.955C587.277 609.838 577.612 609.562 568.128 609.291C563.705 609.165 559.321 609.04 554.976 608.831C541.263 608.172 527.813 606.682 514.249 601.76L514.243 601.758C496.453 595.416 477.241 601.763 458.296 609.052C456.347 609.802 454.401 610.562 452.458 611.321C444.887 614.277 437.359 617.218 429.899 619.462C420.534 622.28 411.382 623.967 402.56 623.208C399.866 622.957 397.285 620.65 394.716 616.511C392.184 612.432 389.875 606.915 387.613 600.907C386.696 598.471 385.783 595.942 384.868 593.409C383.549 589.759 382.227 586.098 380.885 582.69C378.612 576.919 376.199 571.647 373.462 568.022C371.27 564.827 368.584 562.728 365.291 562.799L365.275 562.799L365.26 562.8C337.924 564.151 316.619 546.158 302.595 522.221C298.291 514.739 294.128 505.739 293.349 493.177L293.342 493.068L293.315 492.961C293.288 492.851 293.279 492.736 293.27 492.486L293.269 492.458C293.262 492.261 293.251 491.969 293.184 491.647C292.316 474.645 297.31 456.377 304.859 441.196C312.444 425.945 322.488 414.042 331.491 409.61L331.498 409.606L331.506 409.603C340.485 405.009 349.034 404.726 357.728 405.055C359.077 405.107 360.432 405.173 361.795 405.24C369.168 405.601 376.751 405.973 384.588 403.984C389.441 402.751 394.177 401.012 398.575 398.71C410.495 392.626 421.27 383.23 431.175 372.979C437.978 365.938 444.416 358.444 450.539 351.316C453.321 348.078 456.038 344.915 458.694 341.905C461.885 338.312 465.344 334.14 469.042 329.678C476.706 320.431 485.399 309.943 494.869 300.801C508.921 287.235 524.294 277.047 539.933 278.348Z" stroke="#5553E2" stroke-opacity="0.05" stroke-width="2.29547" stroke-miterlimit="10"/>
<path d="M580.094 286.531L580.09 286.525C571.409 272.615 559.395 259.873 543.72 258.443C526.09 256.911 508.756 268.389 492.97 283.652C482.115 294.147 472.171 306.243 463.481 316.813C459.548 321.597 455.872 326.068 452.485 329.937C449.51 333.352 446.463 336.95 443.337 340.639C436.56 348.641 429.417 357.074 421.854 365.017C410.791 376.635 398.735 387.311 385.394 394.232L385.384 394.238C380.291 396.81 375.248 398.954 369.882 400.317C369.881 400.317 369.88 400.318 369.879 400.318L369.574 399.197C360.902 401.444 352.522 401.041 344.158 400.639C332.898 400.097 321.666 399.557 309.791 405.487L580.094 286.531ZM580.094 286.531C586.391 296.474 591.421 307.469 596.355 318.741C597.049 320.326 597.741 321.917 598.435 323.511C602.661 333.225 606.937 343.056 611.982 352.417C617.752 363.455 624.31 371.875 631.529 378.327L631.533 378.331C648.336 393.219 669.093 397.59 693.946 402.265L693.95 402.266C719.326 406.966 735.674 422.116 745.044 442.193C754.438 462.322 756.823 487.434 754.1 511.907L754.099 511.914C752.16 530.337 748.67 548.589 742.528 565.495C741.529 568.238 740.49 571.132 739.408 574.146C732.397 593.674 723.572 618.252 712.236 639.35C705.695 651.523 698.348 662.477 690.079 670.607C681.813 678.734 672.688 683.98 662.575 684.884C660.803 685.041 658.855 684.492 656.715 683.277C654.575 682.061 652.314 680.219 649.954 677.906C645.231 673.275 640.275 666.921 635.257 660.382C634.875 659.884 634.493 659.386 634.11 658.886C629.494 652.863 624.844 646.796 620.368 642.027C617.942 639.442 615.534 637.203 613.176 635.545C610.825 633.892 608.451 632.765 606.102 632.51C595.28 631.304 584.615 631.014 574.116 630.728C568.979 630.588 563.883 630.449 558.827 630.205C543.376 629.459 528.162 627.729 512.828 622.042L512.826 622.041C493.163 614.784 471.758 622.096 450.587 630.584C448.275 631.511 445.965 632.452 443.657 633.393C435.333 636.786 427.047 640.164 418.839 642.784C408.364 646.127 398.126 648.198 388.275 647.486L388.274 647.486C385.322 647.274 382.5 644.689 379.702 639.994C376.948 635.375 374.445 629.096 371.997 622.254C370.99 619.438 369.989 616.515 368.985 613.586C367.573 609.464 366.157 605.331 364.718 601.475C362.25 594.865 359.634 588.837 356.663 584.69L356.655 584.679C354.172 581.291 351.33 578.542 347.67 578.816C316.912 580.29 293.117 560.075 277.648 533.235C272.871 524.7 268.241 514.652 267.347 500.425L267.34 500.316L267.313 500.21C267.285 500.1 267.277 499.985 267.268 499.735L267.267 499.707C267.26 499.51 267.249 499.22 267.182 498.899C266.311 479.673 271.988 459.166 280.481 442.13C289.008 425.029 300.26 411.648 310.32 406.525L580.094 286.531Z" stroke="#5553E2" stroke-opacity="0.05" stroke-width="2.29547" stroke-miterlimit="10"/>
<path d="M587.928 270.139L587.927 270.136C578.432 254.628 564.958 240.152 547.731 238.59L547.724 238.589C528.021 236.689 508.726 249.455 491.232 266.422C479.196 278.096 468.192 291.567 458.613 303.295C454.284 308.595 450.245 313.54 446.533 317.801L446.533 317.802C443.074 321.767 439.528 325.957 435.89 330.258C428.536 338.952 420.802 348.095 412.627 356.728C400.392 369.65 387.067 381.548 372.31 389.306L372.306 389.309C366.656 392.243 360.93 394.446 355.084 396.144L355.071 396.148L355.057 396.152C345.288 398.724 335.824 398.26 326.565 397.807C324.958 397.728 323.357 397.649 321.762 397.587C310.928 397.164 300.22 397.467 288.976 403.167C277.784 408.84 265.312 423.746 255.888 442.746C246.497 461.679 240.246 484.451 241.274 505.704C241.344 506.064 241.34 506.427 241.338 506.656L241.337 506.702C241.334 507.036 241.341 507.163 241.359 507.235L241.385 507.341L241.392 507.449C242.402 523.349 247.461 534.668 252.743 544.012C269.882 573.827 296.178 596.263 329.933 594.554C333.784 594.339 337.046 597.137 339.712 601.106C342.91 605.775 345.713 612.53 348.356 619.941C349.883 624.224 351.382 628.806 352.879 633.378C353.967 636.703 355.053 640.023 356.147 643.219C358.769 650.877 361.461 657.909 364.444 663.082C367.474 668.336 370.564 671.256 373.836 671.489C384.757 672.22 396.097 669.812 407.685 665.975C416.751 662.973 425.901 659.121 435.085 655.255C437.65 654.175 440.218 653.095 442.787 652.031C466.184 642.344 489.786 634.015 511.449 642.097L511.452 642.098C528.663 648.576 545.596 650.477 562.769 651.248C568.341 651.499 573.953 651.63 579.609 651.762C591.33 652.036 603.243 652.315 615.387 653.667M587.928 270.139L615.294 654.816M587.928 270.139C594.782 281.268 600.247 293.478 605.606 305.876C606.197 307.241 606.786 308.608 607.375 309.977C612.126 321.01 616.906 332.11 622.589 342.541C629.038 354.663 636.107 363.908 644.106 371.016M587.928 270.139L623.588 342.011C629.985 354.038 636.973 363.163 644.848 370.159M615.387 653.667C615.388 653.667 615.388 653.667 615.388 653.667L615.294 654.816M615.387 653.667C615.386 653.667 615.385 653.667 615.385 653.667L615.294 654.816M615.387 653.667C617.961 653.946 620.571 655.197 623.164 657.044C625.766 658.896 628.426 661.402 631.111 664.3C636.048 669.629 641.179 676.408 646.282 683.149C646.723 683.733 647.165 684.315 647.605 684.897C653.169 692.237 658.674 699.377 663.927 704.578C666.551 707.175 669.071 709.247 671.462 710.613C673.853 711.979 676.041 712.598 678.043 712.41L678.05 712.41C689.309 711.425 699.441 705.543 708.599 696.434C717.759 687.323 725.879 675.046 733.098 661.424C745.333 638.336 754.891 611.565 762.541 590.138C763.922 586.271 765.24 582.579 766.501 579.113M615.294 654.816C624.139 655.772 634.727 669.758 645.392 683.847C656.934 699.094 668.567 714.461 678.179 713.561C721.04 709.813 746.947 637.247 763.622 590.54C765.001 586.677 766.316 582.991 767.573 579.536M766.501 579.113C766.501 579.114 766.5 579.115 766.5 579.115L767.573 579.536M766.501 579.113C766.501 579.112 766.502 579.111 766.502 579.111L767.573 579.536M766.501 579.113C773.269 560.245 777.169 539.98 779.517 519.543M767.573 579.536C774.382 560.558 778.296 540.198 780.65 519.706M780.65 519.706L779.517 519.544C779.517 519.544 779.517 519.543 779.517 519.543M780.65 519.706C786.783 465.025 770.433 407.164 712.754 396.411M780.65 519.706L779.517 519.541C779.517 519.542 779.517 519.542 779.517 519.543M779.517 519.543C782.568 492.337 780.012 464.438 769.602 442.054C759.218 419.724 741.011 402.848 712.578 397.547M712.754 396.411L712.58 397.547C712.579 397.547 712.578 397.547 712.578 397.547M712.754 396.411C685.212 391.34 662.876 386.323 644.848 370.159M712.754 396.411L712.577 397.547C712.577 397.547 712.578 397.547 712.578 397.547M712.578 397.547C685.068 392.482 662.413 387.429 644.106 371.016M644.848 370.159L644.109 371.018C644.108 371.017 644.107 371.017 644.106 371.016M644.848 370.159L644.105 371.014C644.105 371.015 644.106 371.015 644.106 371.016" stroke="#5553E2" stroke-opacity="0.05" stroke-width="2.29547" stroke-miterlimit="10"/>
<path d="M595.761 253.744L595.765 253.751C603.174 266.063 609.019 279.473 614.786 293.08C615.278 294.241 615.77 295.403 616.262 296.567C621.524 309.013 626.827 321.555 633.278 333.388C640.41 346.604 648.205 356.716 656.756 364.418C676.526 382.586 701.138 388.097 731.292 393.55L731.294 393.55C762.603 399.179 782.615 417.762 794.01 442.376C805.43 467.045 808.199 497.803 804.842 527.628L804.842 527.629C802.347 549.909 798.254 572.231 790.601 593.222L790.601 593.223C789.148 597.22 787.625 601.499 786.025 605.992C777.691 629.405 767.293 658.615 753.996 683.881C746.075 698.932 737.156 712.52 727.083 722.619C717.011 732.715 705.85 739.261 693.431 740.381C691.205 740.574 688.778 739.862 686.139 738.325C683.499 736.787 680.723 734.466 677.837 731.567C672.06 725.765 666.01 717.817 659.903 709.662C659.434 709.035 658.964 708.407 658.495 707.779C652.877 700.268 647.234 692.722 641.807 686.798C638.864 683.585 635.951 680.811 633.106 678.764C630.271 676.725 627.426 675.35 624.627 675.047C611.128 673.475 597.861 673.168 584.788 672.864C578.722 672.723 572.697 672.584 566.71 672.319C547.764 671.481 529.056 669.396 510.077 662.153C498.234 657.635 485.869 657.728 473.287 660.298C460.718 662.865 447.86 667.92 435.007 673.393C432.152 674.609 429.299 675.844 426.448 677.079C416.428 681.419 406.439 685.745 396.54 689.133C383.834 693.482 371.388 696.241 359.397 695.49L359.39 695.49C355.792 695.286 352.421 692.049 349.139 686.22C345.909 680.481 343.007 672.662 340.189 664.154C339.008 660.586 337.837 656.882 336.665 653.175C335.063 648.11 333.46 643.039 331.824 638.296C328.986 630.066 325.974 622.585 322.53 617.447C319.53 612.942 316.112 609.874 311.84 609.967L311.824 609.967L311.808 609.968C274.626 611.809 245.876 586.929 227.239 554.419C221.446 544.256 215.917 531.89 214.792 514.321L214.79 514.293L214.787 514.266C214.755 513.983 214.757 513.755 214.759 513.463L214.759 513.449C214.762 513.17 214.765 512.832 214.722 512.419C213.654 489.035 220.547 463.929 230.876 443.061C241.23 422.143 254.919 405.712 267.242 399.488C279.621 393.235 291.415 392.895 303.324 393.336C305.052 393.4 306.786 393.481 308.525 393.562C318.717 394.038 329.11 394.524 339.829 391.667C346.368 390.113 352.633 387.553 358.792 384.281C375.054 375.822 389.703 362.713 403.114 348.462C412.138 338.872 420.65 328.712 428.72 319.077C432.631 314.408 436.438 309.863 440.15 305.567C444.324 300.802 448.881 295.231 453.777 289.246C464.236 276.46 476.241 261.784 489.355 249.046C508.624 230.33 529.89 216.222 551.557 218.463C570.742 220.476 585.51 236.434 595.761 253.744Z" stroke="#5553E2" stroke-opacity="0.05" stroke-width="2.29547" stroke-miterlimit="10"/>
<path d="M603.601 237.362L603.599 237.358C592.53 218.441 576.347 200.53 555.614 198.385L555.613 198.385C531.952 195.909 508.721 211.31 487.718 231.724C473.216 245.818 459.961 262.105 448.482 276.211C443.35 282.516 438.573 288.385 434.199 293.428C429.986 298.293 425.665 303.454 421.223 308.759C412.589 319.07 403.501 329.924 393.878 340.202C379.287 355.786 363.358 370.173 345.657 379.579L345.649 379.584L345.641 379.588C339.021 382.972 332.237 385.876 324.958 387.725C313.242 390.836 301.956 390.304 290.892 389.781C288.973 389.691 287.061 389.601 285.154 389.53C272.207 389.049 259.383 389.438 245.849 396.354L245.848 396.354C232.499 403.156 217.59 421.114 206.307 443.95C195.05 466.735 187.518 494.146 188.717 519.666L188.72 519.698C188.791 520.327 188.882 521.137 188.751 521.936C190.012 541.093 195.994 554.468 202.244 565.655C222.327 601.072 253.57 628.175 294.178 626.208C298.756 625.918 302.576 629.362 305.699 634.362C309.37 640.022 312.566 648.243 315.575 657.294C317.304 662.495 318.996 668.05 320.685 673.598C321.932 677.694 323.178 681.785 324.437 685.728C327.423 695.081 330.508 703.681 333.963 709.995C335.69 713.151 337.478 715.674 339.343 717.427C341.198 719.171 343.078 720.107 345.031 720.218C358.053 720.92 371.58 717.788 385.39 712.931C396.072 709.175 406.853 704.414 417.664 699.64C420.84 698.237 424.018 696.834 427.197 695.454C441.162 689.394 455.121 683.807 468.749 680.954C482.389 678.099 495.773 677.964 508.56 682.881L508.561 682.882C529.312 690.891 549.73 693.203 570.393 694.094C577.195 694.387 584.04 694.526 590.934 694.666C604.922 694.949 619.112 695.237 633.554 696.827L633.562 696.828C636.579 697.183 639.655 698.702 642.73 700.951C645.813 703.207 648.975 706.257 652.175 709.79C658.055 716.282 664.174 724.531 670.273 732.752C670.807 733.472 671.34 734.191 671.874 734.909C678.526 743.865 685.126 752.6 691.429 758.987C694.579 762.178 697.614 764.74 700.503 766.445C703.392 768.149 706.058 768.952 708.51 768.752C722.076 767.551 734.257 760.372 745.241 749.295C756.227 738.216 765.947 723.303 774.576 706.794C788.961 679.273 800.226 647.498 809.27 621.989C811.079 616.885 812.8 612.031 814.439 607.512M603.601 237.362L815.511 607.937M603.601 237.362C611.565 250.858 617.846 265.484 624.013 280.323C624.644 281.841 625.274 283.362 625.904 284.884C631.425 298.213 636.984 311.636 643.692 324.384L643.694 324.39C651.295 338.654 659.606 349.596 668.94 357.954M603.601 237.362L644.695 323.863C652.245 338.032 660.476 348.854 669.684 357.099M814.439 607.512C814.439 607.512 814.439 607.512 814.439 607.512L815.511 607.937M814.439 607.512C814.439 607.513 814.438 607.514 814.438 607.514L815.511 607.937M814.439 607.512C822.72 584.554 827.436 560.27 830.122 535.941L830.123 535.938C833.786 503.492 830.846 469.945 818.415 442.992C806.01 416.094 784.149 395.73 749.785 389.5L749.78 389.5C717.024 383.435 690.689 377.517 668.94 357.954M815.511 607.937C823.831 584.869 828.563 560.49 831.256 536.1C838.612 470.944 819.507 400.972 749.956 388.364C717.173 382.294 691.155 376.412 669.684 357.099M668.94 357.954C668.941 357.954 668.941 357.955 668.942 357.955L669.684 357.099M668.94 357.954L669.684 357.099" stroke="#5553E2" stroke-opacity="0.05" stroke-width="2.29547" stroke-miterlimit="10"/>
<path d="M611.437 220.974L611.438 220.975C619.957 235.657 626.684 251.443 633.33 267.42C633.835 268.634 634.339 269.848 634.843 271.063C640.974 285.828 647.146 300.694 654.685 314.833L654.687 314.838C662.974 330.202 671.842 341.735 681.894 350.958L681.899 350.963C705.153 372.051 733.388 378.652 768.797 385.105L768.804 385.107C806.154 391.69 829.821 413.762 843.208 442.936C856.622 472.167 859.722 508.559 855.753 543.625L855.752 543.629C852.827 570.249 847.918 596.589 838.799 621.447L838.799 621.447C836.8 626.897 834.696 632.808 832.472 639.051C822.771 666.293 810.819 699.855 795.653 729.058C786.335 746.999 775.837 763.228 763.953 775.299C752.072 787.367 738.874 795.214 724.146 796.549C721.492 796.786 718.606 795.918 715.48 794.066C712.354 792.214 709.069 789.424 705.66 785.949C698.837 778.994 691.682 769.47 684.47 759.71C683.9 758.94 683.331 758.168 682.761 757.396C676.138 748.422 669.494 739.418 663.114 732.338C659.646 728.49 656.225 725.172 652.892 722.721C649.569 720.277 646.255 718.635 643.013 718.257L643.01 718.256C627.215 716.448 611.674 716.131 596.335 715.818C589.029 715.669 581.768 715.521 574.548 715.213C552.112 714.256 529.918 711.761 507.398 702.985C493.625 697.6 479.198 697.755 464.484 700.9C449.782 704.043 434.716 710.189 419.633 716.864C416.173 718.396 412.713 719.954 409.255 721.512C397.605 726.76 385.981 731.996 374.462 736.138C359.534 741.507 344.901 744.991 330.808 744.27C328.724 744.153 326.717 743.136 324.738 741.237C322.749 739.328 320.846 736.581 319.01 733.148C315.335 726.281 312.055 716.925 308.881 706.753C307.54 702.456 306.214 697.999 304.886 693.537C303.092 687.507 301.295 681.468 299.456 675.807C296.253 665.942 292.851 656.984 288.946 650.802L288.94 650.792L288.934 650.783C285.446 645.492 281.678 641.822 276.673 641.994L276.666 641.994L276.658 641.995C232.621 644.096 199.137 614.6 177.338 576.428C170.409 564.154 164.001 549.51 162.581 528.906C162.711 528.108 162.62 527.298 162.55 526.669L162.547 526.64C161.345 498.896 169.506 469.233 181.68 444.589C193.88 419.893 209.996 400.461 224.504 392.995C239.062 385.504 252.969 385.077 267.019 385.583C269.069 385.657 271.125 385.751 273.187 385.845C285.213 386.397 297.468 386.958 310.133 383.559L310.146 383.556C317.928 381.366 325.183 378.346 332.344 374.608L332.347 374.607C351.554 364.5 368.809 348.901 384.578 331.985C395.054 320.747 404.923 308.872 414.277 297.616C418.988 291.947 423.569 286.435 428.032 281.24C432.729 275.807 437.865 269.469 443.39 262.651C455.76 247.386 470.076 229.72 485.762 214.444C508.472 192.327 533.664 175.637 559.4 178.481L559.407 178.481C582.131 180.86 599.557 200.461 611.437 220.974ZM612.417 220.41C600.5 199.835 582.809 179.773 559.493 177.332L612.417 220.41Z" stroke="#5553E2" stroke-opacity="0.05" stroke-width="2.29547" stroke-miterlimit="10"/>
<path d="M619.271 204.582L619.274 204.586C628.348 220.453 635.51 237.453 642.651 254.632C642.943 255.335 643.235 256.039 643.528 256.742C650.367 273.206 657.26 289.796 665.845 305.549C674.561 322.195 684.377 334.649 694.978 344.463L694.984 344.468C719.744 367.084 749.932 374.142 787.985 380.983L787.988 380.984C828.175 388.116 853.638 411.955 868.036 443.414C882.46 474.93 885.784 514.124 881.51 551.808C878.176 580.441 872.857 608.793 863.112 635.613L863.111 635.614C861.049 641.311 858.878 647.478 856.585 653.989C846.19 683.509 833.309 720.09 816.898 751.89C806.887 771.291 795.593 788.846 782.801 801.898C770.012 814.948 755.793 823.429 739.918 824.846C737.038 825.089 733.913 824.127 730.539 822.102C727.165 820.078 723.623 817.038 719.952 813.262C712.606 805.706 704.905 795.374 697.15 784.799C696.552 783.983 695.954 783.167 695.356 782.35C688.219 772.606 681.062 762.835 674.192 755.159C670.466 750.996 666.792 747.411 663.217 744.766C659.65 742.128 656.1 740.363 652.634 739.962L652.631 739.961C635.632 738.029 618.934 737.733 602.448 737.44C594.594 737.301 586.788 737.163 579.02 736.849C554.888 735.873 530.973 733.206 506.574 723.639C491.804 717.843 476.32 718.028 460.517 721.452C444.726 724.873 428.539 731.546 412.33 738.805C408.517 740.513 404.704 742.252 400.893 743.99C388.47 749.657 376.075 755.312 363.796 759.811C347.76 765.687 332.044 769.544 316.92 768.872C314.638 768.765 312.456 767.666 310.319 765.613C308.172 763.55 306.127 760.575 304.162 756.859C300.231 749.425 296.749 739.285 293.393 728.265C291.962 723.57 290.55 718.699 289.138 713.825C287.256 707.334 285.374 700.84 283.445 694.751C280.063 684.073 276.468 674.395 272.318 667.745C268.671 661.9 264.477 658.168 259.28 658.281L259.265 658.281L259.249 658.282C212.217 660.614 176.022 628.843 152.774 587.76L152.773 587.758C145.144 574.359 138.256 558.634 136.955 536.344L136.953 536.313L136.95 536.283C136.913 535.952 136.886 535.562 136.857 535.139L136.856 535.124C136.829 534.733 136.8 534.313 136.759 533.938C135.425 504.057 144.224 472.088 157.328 445.526C170.457 418.913 187.791 397.954 203.326 389.91L203.327 389.91C219.039 381.756 234.029 381.291 249.147 381.844C251.363 381.925 253.585 382.028 255.813 382.132C268.737 382.733 281.886 383.345 295.471 379.667L295.48 379.664C303.741 377.353 311.74 374.039 319.429 369.953L319.435 369.949C339.971 358.869 358.45 341.982 375.369 323.729C386.384 311.845 396.787 299.327 406.67 287.434C411.95 281.08 417.081 274.904 422.079 269.1L422.08 269.099C426.978 263.39 432.334 256.756 438.093 249.622C451.48 233.04 467.047 213.756 484.123 197.12C508.568 173.306 535.723 155.323 563.452 158.401C587.697 161.132 606.631 182.263 619.271 204.582Z" stroke="#5553E2" stroke-opacity="0.05" stroke-width="2.29547" stroke-miterlimit="10"/>
<path d="M627.112 188.201L627.113 188.202C636.741 205.251 644.283 223.452 651.742 241.844C652.234 243.056 652.726 244.27 653.217 245.483C660.175 262.661 667.177 279.95 675.831 296.453L675.833 296.457C685.231 314.196 695.56 327.476 706.943 337.946L706.946 337.949C733.427 362.137 765.728 369.928 806.219 377.108L806.22 377.108C849.485 384.731 876.819 410.24 892.237 443.925C907.682 477.669 911.176 519.651 906.573 560.067C903.093 590.535 897.321 621.122 886.948 649.903C884.695 656.129 882.318 662.89 879.806 670.037C868.724 701.559 854.995 740.613 837.519 774.605C826.802 795.449 814.709 814.322 801.005 828.351C787.304 842.379 772.062 851.496 755.038 852.993L755.037 852.993C751.925 853.268 748.558 852.231 744.933 850.049C741.31 847.868 737.51 844.59 733.577 840.518C725.706 832.371 717.462 821.225 709.167 809.821C708.512 808.921 707.857 808.019 707.202 807.118C699.582 796.629 691.947 786.119 684.618 777.862C680.636 773.376 676.711 769.516 672.893 766.671C669.084 763.832 665.299 761.941 661.608 761.517L661.606 761.516C643.512 759.472 625.719 759.151 608.138 758.834C599.606 758.68 591.125 758.527 582.683 758.178C556.784 757.109 531.103 754.202 504.932 743.868L504.932 743.868C489.219 737.674 472.732 737.902 455.887 741.616C439.055 745.327 421.787 752.537 404.48 760.385C400.391 762.24 396.3 764.129 392.211 766.018C378.961 772.139 365.73 778.251 352.618 783.131C335.469 789.513 318.643 793.736 302.435 793.1C300.02 792.988 297.711 791.807 295.451 789.598C293.18 787.379 291.02 784.179 288.945 780.187C284.795 772.2 281.118 761.304 277.574 749.465C276.062 744.416 274.57 739.18 273.078 733.942C271.09 726.968 269.102 719.989 267.063 713.439C263.488 701.951 259.689 691.54 255.308 684.369L255.302 684.359C251.515 678.29 246.966 673.94 241.457 674.246C190.996 676.707 152.306 642.712 127.61 598.719L127.605 598.71C119.467 584.495 112.111 567.727 110.694 543.779C110.675 543.291 110.646 542.861 110.617 542.45C110.588 542.032 110.561 541.634 110.544 541.184L110.544 541.177C109.176 509.171 118.563 474.866 132.548 446.363C146.551 417.819 165.049 395.324 181.714 386.729L181.715 386.728C198.56 378.022 214.623 377.575 230.811 378.174C233.073 378.258 235.34 378.363 237.613 378.467C251.558 379.111 265.731 379.764 280.385 375.675L280.395 375.672C289.384 373.069 297.861 369.636 306.083 365.2C328.145 353.309 347.948 335.211 366.04 315.654C377.972 302.757 389.207 289.169 399.86 276.286C405.345 269.652 410.676 263.205 415.868 257.135L415.869 257.134C421.036 251.074 426.685 244.037 432.76 236.469C447.096 218.611 463.807 197.796 482.162 179.869C508.32 154.323 537.438 135.05 567.244 138.497L567.247 138.498C593.483 141.463 613.661 164.286 627.112 188.201Z" stroke="#5553E2" stroke-opacity="0.05" stroke-width="2.29547" stroke-miterlimit="10"/>
<path d="M825.156 371.99C871.366 380.188 900.495 407.464 916.897 443.427C933.325 479.449 936.99 524.221 932.081 567.256L932.081 567.257C928.408 599.784 922.227 632.378 911.015 663.064L911.015 663.065C908.42 670.182 905.678 677.957 902.773 686.197C891.011 719.556 876.564 760.53 858.262 796.292C846.854 818.582 833.981 838.778 819.38 853.803C804.781 868.826 788.524 878.609 770.338 880.242L770.334 880.242C767.019 880.554 763.434 879.453 759.579 877.125C755.725 874.798 751.685 871.293 747.502 866.94C739.132 858.23 730.359 846.302 721.531 834.1C720.844 833.151 720.157 832.2 719.47 831.249C711.349 820.01 703.212 808.749 695.399 799.904C691.16 795.105 686.983 790.979 682.922 787.94C678.871 784.908 674.851 782.895 670.935 782.448L670.933 782.448C651.635 780.278 632.659 779.972 613.905 779.67C604.816 779.523 595.779 779.377 586.782 779.021C559.16 777.926 531.758 774.849 503.817 763.749C487.118 757.087 469.589 757.335 451.671 761.338C433.765 765.339 415.39 773.108 396.966 781.571C392.598 783.577 388.229 785.622 383.861 787.666C369.768 794.261 355.691 800.848 341.739 806.113C323.472 813.007 305.539 817.584 288.258 816.928L288.257 816.928C285.672 816.832 283.214 815.581 280.82 813.23C278.415 810.869 276.137 807.455 273.956 803.192C269.592 794.667 265.75 783.016 262.047 770.35C260.492 765.031 258.959 759.521 257.423 754.003C255.32 746.448 253.214 738.88 251.045 731.773C247.288 719.467 243.277 708.308 238.612 700.601C234.713 693.758 229.959 689.395 224.04 689.586L224.031 689.586L224.023 689.586C170.135 692.178 129.207 655.79 102.797 609.048C94.1857 593.779 86.3611 575.961 84.8303 550.34L84.8285 550.31L84.8251 550.28C84.7508 549.613 84.717 548.718 84.6815 547.759L84.6814 547.754C83.2883 513.636 93.3158 477.023 108.228 446.604C123.161 416.143 142.877 392.123 160.673 382.975L160.678 382.973C178.679 373.603 195.773 373.107 212.999 373.746C215.439 373.837 217.885 373.95 220.337 374.064C235.149 374.753 250.209 375.454 265.853 371.115C275.3 368.609 284.307 364.825 293.045 360.048C316.502 347.431 337.573 328.111 356.841 307.225C369.337 293.68 381.124 279.419 392.316 265.877C398.366 258.557 404.242 251.447 409.962 244.775L409.965 244.772C415.389 238.398 421.323 231.001 427.71 223.041C443 203.983 460.879 181.699 480.533 162.518C508.419 135.304 539.5 114.738 571.298 118.418C599.052 121.736 620.521 146.032 634.953 171.815C645.136 190.049 653.112 209.463 661.057 228.968L661.664 230.457C669.396 249.444 677.153 268.49 686.919 286.456C696.782 305.235 707.624 319.339 719.785 330.462L719.788 330.464C747.816 355.949 782.016 364.422 825.156 371.99ZM825.156 371.99C825.156 371.991 825.157 371.991 825.157 371.991L825.322 370.853L825.155 371.99C825.155 371.99 825.156 371.99 825.156 371.99Z" stroke="#5553E2" stroke-opacity="0.05" stroke-width="2.29547" stroke-miterlimit="10"/>
<path d="M501.904 785.549C541.671 801.432 580.424 802.07 619.801 802.718C639.619 803.045 659.595 803.373 679.937 805.65C694.777 807.336 712.728 832.267 730.785 857.346C750.22 884.341 769.779 911.506 785.715 910.038C856.526 903.763 899.163 782.718 927.156 703.244C930.298 694.325 933.256 685.929 936.048 678.277M501.904 785.549L502.297 784.477M501.904 785.549L502.297 784.476C502.297 784.476 502.297 784.477 502.297 784.477M501.904 785.549C462.946 769.98 419.331 790.574 375.492 811.273C340.968 827.574 306.306 843.94 273.672 842.76C258.554 842.23 249.262 808.367 239.999 774.609C230.635 740.483 221.301 706.465 206.007 707.102C148.328 709.681 104.562 670.624 76.5967 620.781C67.4158 604.589 59.0871 585.323 57.427 557.802C52.8862 484.229 99.6846 399.102 138.477 378.985C160.612 367.506 181.476 368.446 202.416 369.39C218.173 370.1 233.973 370.811 250.389 366.234C304.501 351.231 347.337 299.218 384.256 254.391C390.63 246.652 396.828 239.127 402.877 232.043L936.048 678.277M502.297 784.477C532.01 796.344 561.178 799.661 590.568 800.85C600.238 801.241 609.95 801.401 619.715 801.562C639.566 801.889 659.638 802.22 680.032 804.502L680.034 804.502C684.173 804.972 688.431 807.108 692.731 810.335C697.041 813.57 701.477 817.964 705.983 823.08C714.325 832.55 723.018 844.624 731.691 856.67C732.383 857.632 733.076 858.594 733.768 859.554C743.153 872.575 752.478 885.314 761.361 894.623C765.801 899.277 770.089 903.028 774.177 905.524C778.266 908.022 782.068 909.211 785.58 908.888L785.584 908.887C804.919 907.174 822.2 896.742 837.715 880.724C853.23 864.704 866.908 843.17 879.023 819.422C898.365 781.512 913.642 738.141 926.068 702.866C929.213 693.936 932.176 685.524 934.976 677.852M502.297 784.477C484.603 777.405 466.014 777.697 447.003 781.996C428.006 786.292 408.505 794.609 388.953 803.67C384.289 805.831 379.624 808.034 374.96 810.236C360.035 817.283 345.129 824.321 330.363 829.955C310.99 837.345 291.981 842.267 273.681 841.606L273.68 841.605C270.342 841.488 267.195 839.525 264.15 835.845C261.104 832.165 258.278 826.901 255.6 820.509C250.297 807.854 245.7 791.101 241.082 774.271L240.946 773.775C236.296 756.831 231.617 739.845 226.183 727.178C223.467 720.847 220.526 715.505 217.245 711.769C213.955 708.023 210.207 705.77 205.929 705.948L205.926 705.948C148.868 708.5 105.443 669.885 77.5846 620.231L77.5819 620.226C68.4616 604.142 60.2116 585.053 58.5655 557.763L58.5654 557.762C56.3106 521.228 66.8063 481.751 82.7288 448.879C98.6707 415.967 119.935 389.913 139.019 380.016C158.153 370.094 176.333 369.56 194.635 370.218C197.208 370.31 199.787 370.426 202.372 370.543C218.123 371.255 234.118 371.977 250.718 367.349C282.719 358.476 310.734 336.796 335.838 311.412C353.552 293.5 369.891 273.661 385.177 255.102C391.542 247.373 397.725 239.866 403.748 232.813L403.75 232.81C409.484 226.063 415.769 218.214 422.539 209.759C438.751 189.514 457.747 165.79 478.634 145.372C508.268 116.401 541.324 94.4898 575.092 98.516C604.837 102.068 627.549 128.058 642.793 155.437L642.793 155.438C653.552 174.742 661.973 195.313 670.324 216.023C670.705 216.968 671.086 217.914 671.468 218.86C679.427 238.611 687.417 258.44 697.383 277.244L697.383 277.244C714.776 310.026 734.864 329.864 758.913 342.926C782.916 355.963 810.792 362.208 843.649 367.944C892.824 376.606 923.749 405.647 941.155 443.923C958.588 482.258 962.466 529.888 957.359 575.57L958.492 575.731L957.359 575.57C953.495 610.154 946.86 644.982 934.976 677.852M934.976 677.852C934.976 677.853 934.976 677.853 934.975 677.854L936.048 678.277M934.976 677.852C934.976 677.852 934.976 677.851 934.976 677.851L936.048 678.277" stroke="#5553E2" stroke-opacity="0.05" stroke-width="2.29547" stroke-miterlimit="10"/>
</svg>
