<svg width="90" height="90" viewBox="0 0 90 90" fill="none" xmlns="http://www.w3.org/2000/svg">
<path d="M89.8911 4.07634V15.2446H0.108948V4.07634C0.108948 1.89428 1.89428 0.108948 4.07634 0.108948H85.9237C88.1058 0.108948 89.8911 1.89428 89.8911 4.07634Z" fill="#767C94"/>
<path d="M89.8912 13.2608V85.9236C89.8912 88.1057 88.1059 89.891 85.9238 89.891H4.07646C1.8944 89.891 0.10907 88.1057 0.10907 85.9236V13.2608H89.8912Z" fill="#F4F5F7"/>
<path d="M56.9178 31.862L60.1512 29.549C60.5162 29.2872 61.0161 29.2852 61.3732 29.557C62.3155 30.2731 63.2061 31.0566 64.0472 31.8958C64.8804 32.7289 65.662 33.6255 66.3781 34.5638C66.6518 34.9229 66.6498 35.4208 66.388 35.7878L64.077 39.0212C63.8409 39.3505 63.827 39.7829 64.0274 40.1341C64.9141 41.6893 65.6183 43.3655 66.1023 45.129C66.2095 45.5198 66.5249 45.8154 66.9236 45.8828L70.8414 46.5354C71.2877 46.6108 71.6448 46.9659 71.7043 47.4142C71.861 48.5806 71.9364 49.7629 71.9364 50.9432C71.9364 52.1295 71.859 53.3098 71.7043 54.4762C71.6448 54.9245 71.2877 55.2816 70.8394 55.355L66.9295 56.0036C66.5308 56.0691 66.2134 56.3666 66.1083 56.7574C65.6243 58.5249 64.926 60.2011 64.0393 61.7563C63.8389 62.1075 63.8528 62.5399 64.0889 62.8692L66.4019 66.1026C66.6637 66.4676 66.6657 66.9675 66.3939 67.3246C65.6778 68.2668 64.8943 69.1575 64.0552 69.9986C63.222 70.8318 62.3254 71.6133 61.3871 72.3295C61.028 72.6032 60.5301 72.6012 60.1632 72.3394L56.9297 70.0284C56.6004 69.7923 56.168 69.7784 55.8169 69.9788C54.2616 70.8655 52.5854 71.5697 50.8219 72.0537C50.4311 72.1608 50.1356 72.4762 50.0681 72.875L49.4155 76.7928C49.3401 77.2391 48.985 77.5962 48.5367 77.6557C47.3703 77.8124 46.188 77.8878 45.0077 77.8878C43.8215 77.8878 42.6411 77.8104 41.4747 77.6557C41.0264 77.5962 40.6694 77.2391 40.596 76.7908L39.9473 72.8809C39.8818 72.4822 39.5843 72.1668 39.1935 72.0597C37.426 71.5756 35.7498 70.8734 34.1946 69.9847C33.8415 69.7844 33.409 69.7983 33.0797 70.0343L29.8523 72.3473C29.4833 72.6111 28.9794 72.6131 28.6184 72.3374C27.6781 71.6213 26.7874 70.8437 25.9503 70.0046C25.1172 69.1714 24.3356 68.2748 23.6195 67.3365C23.3457 66.9774 23.3477 66.4795 23.6096 66.1125L25.9206 62.8791C26.1566 62.5498 26.1705 62.1174 25.9702 61.7663C25.0834 60.211 24.3792 58.5348 23.8952 56.7713C23.7881 56.3805 23.4727 56.085 23.074 56.0175L19.1562 55.3649C18.7098 55.2895 18.3528 54.9364 18.2933 54.4861C18.1365 53.3177 18.0612 52.1374 18.0612 50.9511C18.0612 49.7708 18.1385 48.5905 18.2933 47.4241C18.3528 46.9758 18.7098 46.6188 19.1581 46.5454L23.068 45.8967C23.4667 45.8312 23.7821 45.5337 23.8893 45.1429C24.3733 43.3754 25.0755 41.6992 25.9642 40.144C26.1646 39.7909 26.1507 39.3584 25.9146 39.0291L23.6016 35.8017C23.3378 35.4327 23.3358 34.9288 23.6115 34.5678C24.3277 33.6275 25.1053 32.7368 25.9444 31.8997C26.7775 31.0666 27.6742 30.285 28.6124 29.5689C28.9715 29.2951 29.4694 29.2971 29.8364 29.559L33.0698 31.87C33.3991 32.106 33.8316 32.1199 34.1827 31.9196C35.7379 31.0328 37.4141 30.3286 39.1776 29.8446C39.5684 29.7375 39.864 29.4221 39.9314 29.0234L40.5841 25.1056C40.6594 24.6592 41.0125 24.3022 41.4628 24.2426C42.6312 24.0859 43.8115 24.0106 44.9978 24.0106C46.1781 24.0106 47.3584 24.0879 48.5248 24.2426C48.9731 24.3022 49.3302 24.6592 49.4036 25.1075L50.0522 29.0174C50.1177 29.4161 50.4153 29.7335 50.806 29.8387C52.5735 30.3227 54.2497 31.0209 55.805 31.9077C56.1561 32.112 56.5885 32.0981 56.9178 31.862Z" fill="#8ED4B8"/>
<path d="M44.9918 62.8572C51.5476 62.8572 56.8622 57.5426 56.8622 50.9868C56.8622 44.4309 51.5476 39.1163 44.9918 39.1163C38.4359 39.1163 33.1213 44.4309 33.1213 50.9868C33.1213 57.5426 38.4359 62.8572 44.9918 62.8572Z" fill="#F4F5F7"/>
<path d="M38.9813 8.67259H51.0163C52.1133 8.67259 53 7.7839 53 6.6889C53 5.5939 52.1133 4.7052 51.0163 4.7052H38.9813C37.8863 4.7052 36.9976 5.5939 36.9976 6.6889C36.9976 7.7839 37.8863 8.67259 38.9813 8.67259Z" fill="#8ED4B8"/>
<path d="M4.07646 89.891H85.9238C88.1059 89.891 89.8912 88.1057 89.8912 85.9236H0.10907C0.10907 88.1057 1.8944 89.891 4.07646 89.891Z" fill="#C3CCDB"/>
</svg>
