<svg width="61" height="58" viewBox="0 0 61 58" fill="none" xmlns="http://www.w3.org/2000/svg">
<path d="M14.7407 4.51746C12.9237 4.51746 11.5487 5.93023 11.5487 7.55454V12.0724H7.77124V7.55454C7.77124 3.7393 10.9443 0.73999 14.7407 0.73999H53.6863C57.4827 0.73999 60.6557 3.7393 60.6557 7.55454V35.4776C60.6557 39.2928 57.4827 42.2921 53.6863 42.2921H30.436V38.5146H53.6863C55.5033 38.5146 56.8783 37.1019 56.8783 35.4776V7.55454C56.8783 5.93023 55.5033 4.51746 53.6863 4.51746H14.7407ZM30.436 34.7372H39.8797C40.3806 34.7372 40.861 34.5382 41.2152 34.184C41.5694 33.8298 41.7684 33.3494 41.7684 32.8484C41.7684 32.3475 41.5694 31.8671 41.2152 31.5129C40.861 31.1587 40.3806 30.9597 39.8797 30.9597H30.436V34.7372ZM11.5487 46.0696C11.0478 46.0696 10.5674 46.2686 10.2132 46.6228C9.85896 46.977 9.65997 47.4574 9.65997 47.9583C9.65997 48.4592 9.85896 48.9396 10.2132 49.2938C10.5674 49.648 11.0478 49.847 11.5487 49.847H15.3262C15.8271 49.847 16.3075 49.648 16.6617 49.2938C17.0159 48.9396 17.2149 48.4592 17.2149 47.9583C17.2149 47.4574 17.0159 46.977 16.6617 46.6228C16.3075 46.2686 15.8271 46.0696 15.3262 46.0696H11.5487ZM0.216309 21.5161C0.216309 20.0133 0.813281 18.5721 1.8759 17.5094C2.93852 16.4468 4.37974 15.8499 5.88251 15.8499H20.9924C22.4951 15.8499 23.9364 16.4468 24.999 17.5094C26.0616 18.5721 26.6586 20.0133 26.6586 21.5161V51.7358C26.6586 53.2385 26.0616 54.6798 24.999 55.7424C23.9364 56.805 22.4951 57.402 20.9924 57.402H5.88251C4.37974 57.402 2.93852 56.805 1.8759 55.7424C0.813281 54.6798 0.216309 53.2385 0.216309 51.7358V21.5161ZM5.88251 19.6273C5.38158 19.6273 4.90118 19.8263 4.54697 20.1805C4.19276 20.5347 3.99377 21.0151 3.99377 21.5161V51.7358C3.99377 52.2367 4.19276 52.7171 4.54697 53.0713C4.90118 53.4255 5.38158 53.6245 5.88251 53.6245H20.9924C21.4933 53.6245 21.9737 53.4255 22.3279 53.0713C22.6821 52.7171 22.8811 52.2367 22.8811 51.7358V21.5161C22.8811 21.0151 22.6821 20.5347 22.3279 20.1805C21.9737 19.8263 21.4933 19.6273 20.9924 19.6273H5.88251Z" fill="#22B870"/>
</svg>
