<svg width="96" height="96" viewBox="0 0 96 96" fill="none" xmlns="http://www.w3.org/2000/svg">
<path d="M28.0571 19.1999C25.7483 19.1999 24.0011 20.9951 24.0011 23.0591V28.7999H19.2011V23.0591C19.2011 18.2111 23.2331 14.3999 28.0571 14.3999H77.5451C82.3691 14.3999 86.4011 18.2111 86.4011 23.0591V58.5407C86.4011 63.3887 82.3691 67.1999 77.5451 67.1999H48.0011V62.3999H77.5451C79.8539 62.3999 81.6011 60.6047 81.6011 58.5407V23.0591C81.6011 20.9951 79.8539 19.1999 77.5451 19.1999H28.0571ZM48.0011 57.5999H60.0011C60.6376 57.5999 61.248 57.347 61.6981 56.897C62.1482 56.4469 62.4011 55.8364 62.4011 55.1999C62.4011 54.5634 62.1482 53.9529 61.6981 53.5028C61.248 53.0528 60.6376 52.7999 60.0011 52.7999H48.0011V57.5999ZM24.0011 71.9999C23.3646 71.9999 22.7541 72.2528 22.304 72.7028C21.8539 73.1529 21.6011 73.7634 21.6011 74.3999C21.6011 75.0364 21.8539 75.6469 22.304 76.097C22.7541 76.5471 23.3646 76.7999 24.0011 76.7999H28.8011C29.4376 76.7999 30.048 76.5471 30.4981 76.097C30.9482 75.6469 31.2011 75.0364 31.2011 74.3999C31.2011 73.7634 30.9482 73.1529 30.4981 72.7028C30.048 72.2528 29.4376 71.9999 28.8011 71.9999H24.0011ZM9.60107 40.7999C9.60107 38.8903 10.3596 37.059 11.7099 35.7087C13.0602 34.3585 14.8915 33.5999 16.8011 33.5999H36.0011C37.9106 33.5999 39.742 34.3585 41.0922 35.7087C42.4425 37.059 43.2011 38.8903 43.2011 40.7999V79.1999C43.2011 81.1095 42.4425 82.9408 41.0922 84.2911C39.742 85.6413 37.9106 86.3999 36.0011 86.3999H16.8011C14.8915 86.3999 13.0602 85.6413 11.7099 84.2911C10.3596 82.9408 9.60107 81.1095 9.60107 79.1999V40.7999ZM16.8011 38.3999C16.1646 38.3999 15.5541 38.6528 15.104 39.1028C14.6539 39.5529 14.4011 40.1634 14.4011 40.7999V79.1999C14.4011 79.8364 14.6539 80.4469 15.104 80.897C15.5541 81.3471 16.1646 81.5999 16.8011 81.5999H36.0011C36.6376 81.5999 37.248 81.3471 37.6981 80.897C38.1482 80.4469 38.4011 79.8364 38.4011 79.1999V40.7999C38.4011 40.1634 38.1482 39.5529 37.6981 39.1028C37.248 38.6528 36.6376 38.3999 36.0011 38.3999H16.8011Z" fill="#B1B1B1"/>
</svg>
