<svg width="90" height="90" viewBox="0 0 90 90" fill="none" xmlns="http://www.w3.org/2000/svg">
<path d="M89.891 4.07634V15.2446H0.108887V4.07634C0.108887 1.89428 1.89421 0.108948 4.07628 0.108948H85.9236C88.1057 0.108948 89.891 1.89428 89.891 4.07634Z" fill="#767C94"/>
<path d="M89.8912 13.2608V85.9236C89.8912 88.1057 88.1058 89.891 85.9238 89.891H4.0764C1.89434 89.891 0.109009 88.1057 0.109009 85.9236V13.2608H89.8912Z" fill="#F4F5F7"/>
<path d="M68.7842 55.4145C68.5263 69.4194 57.1002 80.7066 43.016 80.7066C28.773 80.7066 17.2279 69.1615 17.2279 54.9186C17.2279 40.6756 28.773 29.1305 43.016 29.1305V55.4145H68.7842Z" fill="#8ED4B8"/>
<path d="M74.7551 48.9673C74.7551 49.126 74.7551 49.3045 74.7353 49.4632H48.967V23.1792C63.21 23.1792 74.7551 34.7243 74.7551 48.9673Z" fill="#E95B6B"/>
<path d="M38.9811 8.67259H51.0162C52.1132 8.67259 52.9999 7.7839 52.9999 6.6889C52.9999 5.5939 52.1132 4.7052 51.0162 4.7052H38.9811C37.8861 4.7052 36.9974 5.5939 36.9974 6.6889C36.9974 7.7839 37.8861 8.67259 38.9811 8.67259Z" fill="#8ED4B8"/>
<path d="M4.0764 89.891H85.9238C88.1058 89.891 89.8912 88.1057 89.8912 85.9236H0.109009C0.109009 88.1057 1.89434 89.891 4.0764 89.891Z" fill="#C3CCDB"/>
</svg>
