<svg width="82" height="94" viewBox="0 0 82 94" fill="none" xmlns="http://www.w3.org/2000/svg">
<path d="M67.0737 52.8459C66.2256 58.2591 63.519 65.3865 56.969 65.3865H45.9982C43.2916 65.3865 41.0361 64.2678 38.6543 63.1491C35.9297 61.8499 32.9524 61.1462 29.9391 61.0559H28.5316V40.3594H29.9391C32.4652 40.1068 37.7882 38.3926 41.3429 29.4428C45.475 18.9953 47.2974 14.5925 51.3212 16.5593C52.6745 17.1909 53.4504 18.6885 53.3602 20.1682L52.6024 34.7477C52.6024 34.7477 59.026 34.0801 62.7792 35.6319C68.3187 37.9054 67.8315 48.0462 67.0737 52.8459Z" fill="#F4F5F7"/>
<path d="M35.3521 39.9083C35.3521 39.3273 35.2853 38.7643 35.1806 38.214C33.1182 39.7477 31.1857 40.2349 29.9388 40.3594V61.0559C31.7757 61.1101 33.591 61.4222 35.3521 61.9293V39.9083Z" fill="#C3CCDB"/>
<path d="M29.939 39.9083V62.2829C29.939 64.2678 28.3151 65.8917 26.3302 65.8917H19.5276C17.5247 65.8917 15.9188 64.2678 15.9188 62.2829V39.9083C15.9188 37.9054 17.5247 36.2995 19.5276 36.2995H26.3302C28.3151 36.2995 29.939 37.9054 29.939 39.9083Z" fill="#767C94"/>
<path d="M42.1854 74.2084L43.8148 79.2247C43.9826 79.7389 44.4608 80.0872 45.0003 80.0872H50.2746C51.4835 80.0872 51.9851 81.6336 51.0071 82.3445L46.7397 85.4445C46.3031 85.762 46.119 86.325 46.2868 86.8393L47.9162 91.8555C48.2897 93.0049 46.9743 93.9612 45.9963 93.2503L41.7289 90.1503C41.2922 89.8328 40.7004 89.8328 40.2619 90.1503L35.9945 93.2503C35.0165 93.9612 33.7011 93.0049 34.0746 91.8555L35.704 86.8393C35.8718 86.325 35.6878 85.762 35.2511 85.4445L30.9837 82.3445C30.0057 81.6336 30.5091 80.0872 31.7163 80.0872H36.9905C37.53 80.0872 38.01 79.7389 38.176 79.2247L39.8054 74.2084C40.1861 73.059 41.8137 73.059 42.1854 74.2084Z" fill="#FED2A5"/>
<path d="M11.9564 74.2084L13.5858 79.2247C13.7536 79.7389 14.2318 80.0872 14.7713 80.0872H20.0455C21.2545 80.0872 21.7561 81.6336 20.7781 82.3445L16.5107 85.4445C16.0741 85.762 15.89 86.325 16.0578 86.8393L17.6872 91.8555C18.0607 93.0049 16.7453 93.9612 15.7673 93.2503L11.4999 90.1503C11.0632 89.8328 10.4714 89.8328 10.0329 90.1503L5.76549 93.2503C4.78751 93.9612 3.4721 93.0049 3.84561 91.8555L5.47499 86.8393C5.6428 86.325 5.45875 85.762 5.02208 85.4445L0.754665 82.3445C-0.223322 81.6336 0.280107 80.0872 1.48725 80.0872H6.76153C7.30104 80.0872 7.78101 79.7389 7.94702 79.2247L9.5764 74.2084C9.95712 73.059 11.5829 73.059 11.9564 74.2084Z" fill="#FED2A5"/>
<path d="M70.0437 74.2084L68.4143 79.2247C68.2465 79.7389 67.7683 80.0872 67.2288 80.0872H61.9545C60.7456 80.0872 60.2439 81.6336 61.2219 82.3445L65.4893 85.4445C65.926 85.762 66.1101 86.325 65.9422 86.8393L64.3129 91.8555C63.9393 93.0049 65.2548 93.9612 66.2328 93.2503L70.5002 90.1503C70.9368 89.8328 71.5287 89.8328 71.9671 90.1503L76.2346 93.2503C77.2125 93.9612 78.528 93.0049 78.1544 91.8555L76.5251 86.8393C76.3573 86.325 76.5413 85.762 76.978 85.4445L81.2454 82.3445C82.2234 81.6336 81.7199 80.0872 80.5128 80.0872H75.2385C74.699 80.0872 74.219 79.7389 74.053 79.2247L72.4237 74.2084C72.0429 73.059 70.4172 73.059 70.0437 74.2084Z" fill="#FED2A5"/>
<path d="M50.0061 9.94072C51.0039 9.94072 51.8105 9.13415 51.8105 8.13632V2.3099C51.8105 1.31206 51.0039 0.505493 50.0061 0.505493C49.0082 0.505493 48.2017 1.31206 48.2017 2.3099V8.13632C48.2017 9.13415 49.0082 9.94072 50.0061 9.94072Z" fill="#8ED4B8"/>
<path d="M41.2635 12.5841C41.6153 12.9359 42.0772 13.1127 42.5392 13.1127C43.0011 13.1127 43.463 12.9359 43.8149 12.5841C44.5204 11.8785 44.5204 10.7381 43.8149 10.0326L40.2241 6.44186C39.5186 5.73634 38.3782 5.73634 37.6727 6.44186C36.9672 7.14738 36.9672 8.28777 37.6727 8.99329L41.2635 12.5841Z" fill="#8ED4B8"/>
<path d="M57.5211 12.992C57.983 12.992 58.445 12.8151 58.7968 12.4633L62.3876 8.8725C63.0931 8.16698 63.0931 7.02659 62.3876 6.32107C61.6821 5.61555 60.5417 5.61555 59.8361 6.32107L56.2454 9.91184C55.5399 10.6174 55.5399 11.7577 56.2454 12.4633C56.5991 12.8169 57.0592 12.992 57.5211 12.992Z" fill="#8ED4B8"/>
</svg>
