<svg width="250" height="218" viewBox="0 0 250 218" fill="none" xmlns="http://www.w3.org/2000/svg">
<g clip-path="url(#clip0_330_1535)">
<path d="M47.2881 153.365L44.7203 173.593L40.9417 150.615C22.7817 143.646 1.54866 142.293 1.54866 142.293C1.54866 142.293 -3.13701 186.18 12.3334 204.53C27.8039 222.881 44.1148 220.092 57.5721 208.747C71.0292 197.402 76.5366 181.797 61.0662 163.447C57.6228 159.362 52.7621 156.05 47.2881 153.365Z" fill="#F2F2F2"/>
<path d="M42.2529 176.652L43.0154 177.556C51.8255 188.115 56.9682 197.814 58.3587 206.524C58.3812 206.65 58.3954 206.776 58.4178 206.903L57.8282 206.994L57.2602 207.074C55.8615 197.582 49.7942 187.614 42.1121 178.402C41.8674 178.103 41.619 177.799 41.3616 177.502C38.0752 173.631 34.5272 169.904 30.9302 166.41C30.6542 166.137 30.3699 165.864 30.0856 165.59C25.3141 161.002 20.4984 156.835 16.1971 153.314C15.8942 153.064 15.5869 152.817 15.2833 152.575C7.97837 146.645 2.28877 142.686 1.02021 141.817C0.867384 141.709 0.780808 141.652 0.76123 141.637L1.08471 141.158L1.08541 141.15L1.41336 140.666C1.43296 140.68 1.72425 140.871 2.24978 141.24C4.22382 142.61 9.5269 146.374 16.1024 151.693C16.3977 151.934 16.7051 152.181 17.008 152.431C20.5015 155.285 24.3177 158.548 28.1625 162.109C29.1297 163.002 30.0722 163.893 30.9899 164.782C31.2786 165.052 31.5629 165.325 31.8389 165.598C35.7277 169.375 39.1991 173.059 42.2529 176.652Z" fill="white"/>
<path d="M16.102 151.693C15.836 151.986 15.5655 152.283 15.2829 152.575C14.5166 153.369 13.7102 154.123 12.8668 154.834C9.27604 157.869 5.04998 160.06 0.5 161.246C0.512 161.642 0.524024 162.037 0.535323 162.442C5.35191 161.23 9.82803 158.935 13.6219 155.73C14.5221 154.97 15.3816 154.164 16.1968 153.314C16.4748 153.026 16.7453 152.729 17.0076 152.431C19.1847 149.988 20.9781 147.228 22.3265 144.247C21.9263 144.163 21.5344 144.08 21.1507 143.997C19.856 146.797 18.1547 149.39 16.102 151.693Z" fill="white"/>
<path d="M30.9891 164.782C30.6952 165.06 30.3938 165.329 30.0848 165.59C29.9946 165.674 29.8961 165.757 29.802 165.836C25.9069 169.12 21.2754 171.413 16.3025 172.52C11.3295 173.628 6.16261 173.516 1.24219 172.195C1.2858 172.61 1.32942 173.025 1.38129 173.441C6.42771 174.721 11.7064 174.779 16.7801 173.613C21.8538 172.446 26.5765 170.087 30.557 166.732C30.6824 166.626 30.8078 166.52 30.9294 166.41C31.2391 166.141 31.5405 165.872 31.8382 165.598C36.4128 161.322 39.6591 155.82 41.1891 149.748C40.823 149.605 40.457 149.461 40.0865 149.322C38.623 155.25 35.4613 160.623 30.9891 164.782Z" fill="white"/>
<path d="M42.2528 176.652C41.9621 176.943 41.6637 177.225 41.3616 177.503C41.037 177.799 40.7088 178.091 40.3729 178.374C35.1337 182.781 28.6081 185.372 21.7732 185.759C14.9382 186.147 8.16165 184.31 2.45801 180.524C2.5623 181.056 2.66278 181.584 2.77601 182.11C8.65589 185.727 15.5263 187.4 22.4111 186.89C29.2959 186.38 35.8449 183.714 41.1279 179.27C41.4638 178.987 41.7958 178.699 42.1121 178.402C42.4225 178.125 42.7208 177.843 43.0154 177.556C48.9291 171.723 52.4053 163.861 52.74 155.561C52.3666 155.309 51.9835 155.073 51.5967 154.832C51.4378 163.044 48.0862 170.87 42.2528 176.652Z" fill="white"/>
<path d="M143.411 51.4795V18.8722C143.411 13.867 141.423 9.0668 137.883 5.52758C134.344 1.98836 129.544 3.45608e-05 124.539 3.74049e-10H55.4558C52.9775 -1.56024e-05 50.5234 0.488114 48.2337 1.43652C45.944 2.38492 43.8636 3.77503 42.1111 5.52747C40.3586 7.27991 38.9685 9.36036 38.0201 11.65C37.0717 13.9397 36.5835 16.3938 36.5835 18.8721V40.5276H35.3696V48.1579H36.5835V56.2969H35.3696V67.9967H36.5835V73.0836H35.3696V84.7834H36.5835V197.758C36.5835 200.237 37.0716 202.691 38.02 204.98C38.9684 207.27 40.3585 209.35 42.111 211.103C43.8634 212.855 45.9438 214.245 48.2335 215.194C50.5232 216.142 52.9773 216.63 55.4556 216.63H124.538C127.017 216.63 129.471 216.142 131.761 215.194C134.05 214.246 136.131 212.855 137.883 211.103C139.636 209.351 141.026 207.27 141.974 204.98C142.923 202.691 143.411 200.237 143.411 197.758V74.6899H144.601V51.4795H143.411Z" fill="#3F3D56"/>
<path d="M125.3 4.90992H116.282C116.697 5.92662 116.855 7.02971 116.743 8.122C116.631 9.21428 116.252 10.2623 115.64 11.1736C115.027 12.0849 114.2 12.8317 113.231 13.348C112.262 13.8644 111.181 14.1345 110.083 14.1346H70.5059C69.4079 14.1345 68.3268 13.8644 67.3577 13.348C66.3887 12.8317 65.5615 12.0849 64.949 11.1736C64.3366 10.2623 63.9576 9.21428 63.8456 8.12199C63.7335 7.0297 63.8918 5.92661 64.3065 4.90991H55.8841C52.1462 4.90991 48.5615 6.39476 45.9184 9.03781C43.2754 11.6809 41.7905 15.2656 41.7905 19.0035V197.627C41.7905 199.478 42.1551 201.31 42.8633 203.02C43.5716 204.73 44.6097 206.284 45.9184 207.593C47.2271 208.901 48.7808 209.94 50.4907 210.648C52.2006 211.356 54.0333 211.721 55.8841 211.721H125.3C129.038 211.721 132.622 210.236 135.265 207.593C137.908 204.95 139.393 201.365 139.393 197.627V19.0035C139.393 17.1527 139.029 15.32 138.32 13.6101C137.612 11.9002 136.574 10.3465 135.265 9.03781C133.957 7.72911 132.403 6.69098 130.693 5.98272C128.983 5.27446 127.15 4.90992 125.3 4.90992Z" fill="white"/>
<path d="M127.046 67.0727H54.138C53.63 67.0721 53.1429 66.87 52.7836 66.5107C52.4244 66.1515 52.2223 65.6644 52.2217 65.1563V35.5736C52.2223 35.0655 52.4244 34.5784 52.7836 34.2192C53.1429 33.8599 53.63 33.6578 54.138 33.6572H127.046C127.554 33.6578 128.041 33.8599 128.4 34.2192C128.759 34.5784 128.961 35.0655 128.962 35.5736V65.1563C128.961 65.6644 128.759 66.1515 128.4 66.5108C128.041 66.87 127.554 67.0721 127.046 67.0727Z" fill="#22B870"/>
<path d="M120.104 81.0722H61.0806C60.5216 81.0722 59.9854 80.8501 59.5901 80.4547C59.1947 80.0594 58.9727 79.5232 58.9727 78.9642C58.9727 78.4051 59.1947 77.8689 59.5901 77.4736C59.9854 77.0783 60.5216 76.8562 61.0806 76.8562H120.104C120.663 76.8562 121.199 77.0783 121.595 77.4736C121.99 77.8689 122.212 78.4051 122.212 78.9642C122.212 79.5232 121.99 80.0594 121.595 80.4547C121.199 80.8501 120.663 81.0722 120.104 81.0722Z" fill="#22B870"/>
<path d="M120.104 91.8036H61.0809C60.471 91.8036 59.886 91.5613 59.4548 91.13C59.0235 90.6988 58.7812 90.1139 58.7812 89.504C58.7812 88.8941 59.0235 88.3091 59.4548 87.8779C59.886 87.4466 60.471 87.2043 61.0809 87.2043H120.104C120.714 87.2043 121.299 87.4466 121.73 87.8779C122.162 88.3091 122.404 88.8941 122.404 89.504C122.404 90.1139 122.162 90.6988 121.73 91.13C121.299 91.5613 120.714 91.8036 120.104 91.8036Z" fill="#E4E4E4"/>
<path d="M120.104 102.344H61.0809C60.471 102.344 59.886 102.101 59.4548 101.67C59.0235 101.239 58.7812 100.654 58.7812 100.044C58.7812 99.4341 59.0235 98.8492 59.4548 98.4179C59.886 97.9867 60.471 97.7444 61.0809 97.7444H120.104C120.714 97.7444 121.299 97.9867 121.73 98.4179C122.162 98.8492 122.404 99.4341 122.404 100.044C122.404 100.654 122.162 101.239 121.73 101.67C121.299 102.101 120.714 102.344 120.104 102.344Z" fill="#E4E4E4"/>
<path d="M127.046 155.608H54.138C53.63 155.607 53.1429 155.405 52.7836 155.046C52.4244 154.686 52.2223 154.199 52.2217 153.691V124.108C52.2223 123.6 52.4244 123.113 52.7836 122.754C53.1429 122.395 53.63 122.193 54.138 122.192H127.046C127.554 122.193 128.041 122.395 128.4 122.754C128.759 123.113 128.961 123.6 128.962 124.108V153.691C128.961 154.199 128.759 154.686 128.4 155.046C128.041 155.405 127.554 155.607 127.046 155.608Z" fill="#E4E4E4"/>
<path d="M120.104 169.799H61.0809C60.471 169.799 59.886 169.557 59.4548 169.125C59.0235 168.694 58.7812 168.109 58.7812 167.499C58.7812 166.889 59.0235 166.304 59.4548 165.873C59.886 165.442 60.471 165.2 61.0809 165.2H120.104C120.714 165.2 121.299 165.442 121.73 165.873C122.162 166.304 122.404 166.889 122.404 167.499C122.404 168.109 122.162 168.694 121.73 169.125C121.299 169.557 120.714 169.799 120.104 169.799Z" fill="#E4E4E4"/>
<path d="M120.104 180.339H61.0809C60.471 180.339 59.886 180.096 59.4548 179.665C59.0235 179.234 58.7812 178.649 58.7812 178.039C58.7812 177.429 59.0235 176.844 59.4548 176.413C59.886 175.982 60.471 175.74 61.0809 175.74H120.104C120.714 175.74 121.299 175.982 121.73 176.413C122.162 176.844 122.404 177.429 122.404 178.039C122.404 178.649 122.162 179.234 121.73 179.665C121.299 180.096 120.714 180.339 120.104 180.339Z" fill="#E4E4E4"/>
<path d="M120.104 190.879H61.0809C60.471 190.879 59.886 190.636 59.4548 190.205C59.0235 189.774 58.7812 189.189 58.7812 188.579C58.7812 187.969 59.0235 187.384 59.4548 186.953C59.886 186.522 60.471 186.279 61.0809 186.279H120.104C120.714 186.279 121.299 186.522 121.73 186.953C122.162 187.384 122.404 187.969 122.404 188.579C122.404 189.189 122.162 189.774 121.73 190.205C121.299 190.636 120.714 190.879 120.104 190.879Z" fill="#E4E4E4"/>
<path d="M186.348 56.0865C185.607 50.6481 184.677 44.8091 180.841 40.8832C179.624 39.6375 178.167 38.6512 176.559 37.9837C174.95 37.3163 173.223 36.9814 171.481 36.9995C169.74 37.0175 168.02 37.388 166.426 38.0886C164.831 38.7893 163.395 39.8055 162.204 41.0761C159.412 44.0548 158.179 48.2374 158.066 52.3186C157.953 56.3999 158.862 60.4357 159.871 64.392C165.207 64.4986 170.503 63.4561 175.401 61.3352C176.601 60.7493 177.847 60.2604 179.125 59.8733C180.419 59.544 181.341 60.3727 182.545 60.9505L183.205 59.6855C183.746 60.692 185.421 60.3936 186.028 59.4258C186.636 58.4581 186.503 57.2187 186.348 56.0865Z" fill="#2F2E41"/>
<path d="M235.227 205.051L231.307 207.643L219.445 193.759L225.229 189.934L235.227 205.051Z" fill="#CFB4B8"/>
<path d="M238.738 208.189L226.101 216.547L225.995 216.387C225.133 215.082 224.824 213.489 225.136 211.956C225.448 210.424 226.357 209.078 227.661 208.215L227.661 208.215L235.38 203.111L238.738 208.189Z" fill="#2F2E41"/>
<path d="M184.633 211.992H179.934L177.699 193.868L184.634 193.868L184.633 211.992Z" fill="#CFB4B8"/>
<path d="M185.832 216.547L170.681 216.546V216.355C170.681 214.791 171.302 213.291 172.408 212.185C173.514 211.079 175.014 210.458 176.578 210.458H176.578L185.832 210.458L185.832 216.547Z" fill="#2F2E41"/>
<path d="M151.202 87.4415L133.461 74.7685C133.539 74.1046 133.422 73.4323 133.125 72.8334C132.828 72.2345 132.364 71.7348 131.788 71.3951C131.212 71.0554 130.55 70.8904 129.882 70.9202C129.215 70.9499 128.57 71.1731 128.027 71.5626C127.483 71.9521 127.065 72.4911 126.822 73.114C126.58 73.7369 126.524 74.4169 126.66 75.0712C126.797 75.7255 127.121 76.326 127.593 76.7995C128.065 77.2729 128.665 77.5991 129.318 77.7381C131.536 79.6001 147.734 95.7089 150.053 94.8592C152.407 93.9968 162.698 92.4357 162.698 92.4357L162.985 82.6642L151.202 87.4415Z" fill="#CFB4B8"/>
<path d="M165.141 110.499L165.308 132.797C165.308 132.797 169.147 165.835 170.563 171.416C171.98 176.998 177.727 202.824 177.727 202.824L187.071 201.316L181.054 167.551L182.872 139.566L193.36 167.613L219.992 195.451L226.741 190.005L203.561 155.939L196.481 128.033C196.481 128.033 197.362 113.599 189.428 108.041L165.141 110.499Z" fill="#2F2E41"/>
<path d="M170.508 61.4671C176.164 61.4671 180.749 56.882 180.749 51.2259C180.749 45.5698 176.164 40.9846 170.508 40.9846C164.852 40.9846 160.267 45.5698 160.267 51.2259C160.267 56.882 164.852 61.4671 170.508 61.4671Z" fill="#CFB4B8"/>
<path d="M173.173 114.097L169.366 122.594L180.412 127.542L184.218 119.046L173.173 114.097Z" fill="#2F2E41"/>
<path d="M186.911 70.9312C185.704 68.5292 185.117 65.562 182.544 64.7833C180.807 64.2574 173.78 65.0454 172.196 65.9331C169.562 67.4095 171.949 70.1763 170.395 72.7654C168.706 75.58 167.017 78.3946 165.327 81.2092C164.166 83.1441 162.993 85.1066 162.365 87.2741C161.737 89.4417 161.707 91.8745 162.776 93.8616C163.734 95.6401 165.468 96.9015 166.431 98.6771C167.432 100.524 165.635 108.769 164.703 110.652L165.15 110.858C171.346 111.222 177.562 111.013 183.719 110.233C185.247 110.04 186.834 109.787 188.093 108.9C189.948 107.593 190.681 105.222 191.14 103C193.345 92.1381 191.857 80.8503 186.911 70.9312Z" fill="#E4E4E4"/>
<path d="M165.951 94.1927C168.726 91.4659 171.515 88.7228 173.799 85.5737C176.083 82.4245 177.859 78.82 178.355 74.9616C178.567 73.7305 178.483 72.4665 178.109 71.2745C177.683 70.1059 176.741 69.0688 175.526 68.8022C173.582 68.3754 171.815 69.9268 170.428 71.3539C166.338 75.5617 162.248 79.7694 158.158 83.9772C160.763 87.4066 163.368 90.8361 165.974 94.2655L165.951 94.1927Z" fill="#E4E4E4"/>
<path d="M196.193 96.2929C195.331 93.939 193.77 83.6476 193.77 83.6476L183.998 83.3611L188.776 95.1439L175.739 113.394C175.739 113.394 175.763 113.434 175.807 113.505C175.122 113.395 174.419 113.495 173.791 113.791C173.163 114.087 172.639 114.565 172.288 115.164C171.937 115.763 171.774 116.453 171.822 117.146C171.869 117.838 172.125 118.5 172.555 119.045C172.985 119.59 173.569 119.993 174.232 120.2C174.894 120.407 175.604 120.409 176.268 120.207C176.932 120.004 177.519 119.606 177.953 119.064C178.387 118.522 178.647 117.861 178.699 117.169C178.747 117.197 178.803 117.207 178.858 117.197C178.912 117.188 178.962 117.16 178.998 117.118C180.448 115.297 197.056 98.6467 196.193 96.2929Z" fill="#CFB4B8"/>
<path d="M197.186 89.7937C196.289 86.0083 195.386 82.2023 193.874 78.618C192.362 75.0337 190.197 71.6482 187.152 69.2267C186.209 68.4079 185.084 67.8257 183.87 67.5285C182.65 67.2878 181.275 67.5572 180.418 68.4585C179.047 69.9008 179.459 72.2159 179.962 74.1415C181.445 79.8191 182.929 85.4966 184.412 91.1742C188.694 90.7202 192.977 90.2662 197.26 89.8122L197.186 89.7937Z" fill="#E4E4E4"/>
<path d="M183.311 52.0227C182.991 49.5452 182.656 47.047 181.904 44.7142C181.152 42.3814 179.939 40.1965 178.2 38.875C175.446 36.7827 171.881 37.1862 168.793 38.3897C166.405 39.3205 164.074 40.7352 162.39 43.0095C160.707 45.2838 159.761 48.529 160.387 51.5027C163.681 50.5861 166.974 49.6695 170.268 48.753L169.907 49.0531C172.044 50.2574 173.668 52.7491 174.153 55.5705C174.64 58.3819 174.017 61.2729 172.414 63.6336C174.66 62.695 176.906 61.7564 179.152 60.8179C180.539 60.2385 182.023 59.571 182.845 58.0851C183.798 56.3622 183.577 54.0787 183.311 52.0227Z" fill="#2F2E41"/>
<path d="M134.957 68.0778L128.369 77.9653C128.212 78.2027 127.998 78.3972 127.747 78.5311C127.496 78.6651 127.215 78.7342 126.93 78.7323C126.591 78.7324 126.26 78.6322 125.978 78.4443C125.696 78.2564 125.476 77.9892 125.345 77.6765C125.299 77.571 125.264 77.4608 125.242 77.3478C125.153 76.8991 125.245 76.4334 125.499 76.0526L132.087 66.1651C132.212 65.9766 132.374 65.8147 132.562 65.6886C132.75 65.5626 132.961 65.4748 133.183 65.4303C133.406 65.3858 133.634 65.3855 133.856 65.4294C134.079 65.4733 134.29 65.5606 134.478 65.6862C134.667 65.8117 134.829 65.9732 134.955 66.1614C135.081 66.3495 135.169 66.5607 135.213 66.7828C135.258 67.0048 135.258 67.2335 135.214 67.4557C135.17 67.6779 135.083 67.8893 134.957 68.0778Z" fill="#6C63FF"/>
<path d="M128.901 77.168L127.567 79.1576L125.207 81.2375C125.052 81.3746 124.856 81.4564 124.649 81.4704C124.443 81.4844 124.237 81.4298 124.065 81.3149C123.893 81.2001 123.763 81.0315 123.696 80.8354C123.63 80.6393 123.63 80.4267 123.697 80.2307L124.729 77.2074L126.03 75.2554L128.901 77.168Z" fill="#3F3D56"/>
<path d="M135.249 62.8927L131.947 65.8028C131.839 65.8981 131.754 66.0169 131.699 66.1501C131.644 66.2834 131.621 66.4274 131.631 66.5712C131.64 66.715 131.683 66.8546 131.755 66.9792C131.827 67.1039 131.927 67.2103 132.047 67.2902L132.672 67.7064L130.866 70.4175C130.838 70.4594 130.818 70.5064 130.809 70.5557C130.799 70.6051 130.799 70.6559 130.809 70.7053C130.819 70.7546 130.838 70.8016 130.866 70.8434C130.894 70.8852 130.93 70.9211 130.972 70.949C131.014 70.9769 131.061 70.9963 131.11 71.006C131.16 71.0158 131.21 71.0157 131.26 71.0058C131.309 70.996 131.356 70.9764 131.398 70.9484C131.44 70.9204 131.476 70.8844 131.504 70.8426L133.31 68.1315L133.935 68.5477C134.142 68.6856 134.395 68.7358 134.639 68.6873C134.883 68.6388 135.098 68.4956 135.237 68.289C135.283 68.2202 135.319 68.1457 135.346 68.0675L136.76 63.8999C136.827 63.7038 136.827 63.4912 136.76 63.2951C136.693 63.0991 136.564 62.9305 136.391 62.8157C136.219 62.7009 136.013 62.6462 135.807 62.6601C135.6 62.674 135.404 62.7558 135.249 62.8927L135.249 62.8927Z" fill="#3F3D56"/>
<path d="M249.043 217.355H0.956002C0.8352 217.355 0.719461 217.306 0.634164 217.221C0.548867 217.135 0.500977 217.019 0.500977 216.899C0.500977 216.778 0.548867 216.662 0.634164 216.576C0.719461 216.491 0.8352 216.442 0.956002 216.442H249.043C249.164 216.442 249.28 216.491 249.365 216.576C249.45 216.662 249.498 216.778 249.498 216.899C249.498 217.019 249.45 217.135 249.365 217.221C249.28 217.306 249.164 217.355 249.043 217.355Z" fill="#3F3D56"/>
<path d="M93.1792 8.25109H82.831C82.6277 8.25109 82.4327 8.17033 82.289 8.02658C82.1452 7.88282 82.0645 7.68785 82.0645 7.48455C82.0645 7.28126 82.1452 7.08628 82.289 6.94253C82.4327 6.79878 82.6277 6.71802 82.831 6.71802H93.1792C93.3825 6.71802 93.5775 6.79878 93.7212 6.94253C93.865 7.08628 93.9458 7.28126 93.9458 7.48455C93.9458 7.68785 93.865 7.88282 93.7212 8.02658C93.5775 8.17033 93.3825 8.25109 93.1792 8.25109Z" fill="white"/>
<path d="M98.3539 8.25109C98.7773 8.25109 99.1205 7.9079 99.1205 7.48455C99.1205 7.06121 98.7773 6.71802 98.3539 6.71802C97.9306 6.71802 97.5874 7.06121 97.5874 7.48455C97.5874 7.9079 97.9306 8.25109 98.3539 8.25109Z" fill="white"/>
</g>
<defs>
<clipPath id="clip0_330_1535">
<rect width="249" height="217.781" fill="white" transform="translate(0.5)"/>
</clipPath>
</defs>
</svg>
